<svg width="17" height="18" viewBox="0 0 17 18" fill="none" xmlns="http://www.w3.org/2000/svg">
<g id="01 align center">
<path id="Vector" d="M15.9503 16.5137C16.1982 16.2496 16.1982 15.8383 15.9503 15.5742L12.8034 12.2214C12.4681 11.8642 12.4478 11.3202 12.6976 10.8988C13.458 9.61622 13.8171 8.10037 13.7093 6.57247C13.5811 4.75476 12.8021 3.05907 11.5334 1.83616C10.2646 0.613241 8.60329 -0.0433403 6.89294 0.00222209C5.18258 0.0477845 3.5541 0.792005 2.34432 2.08095C1.13454 3.36989 0.436024 5.10493 0.39326 6.9272C0.350496 8.74947 0.966753 10.5195 2.11456 11.8713C3.26237 13.223 4.85391 14.053 6.55999 14.1896C7.95084 14.3009 9.33106 13.9445 10.5112 13.1838C10.9633 12.8924 11.572 12.9155 11.9401 13.3076L14.9493 16.5137C15.2204 16.8026 15.6791 16.8026 15.9503 16.5137ZM7.07027 12.7909C6.01684 12.7909 4.98707 12.4581 4.11118 11.8345C3.23528 11.211 2.55261 10.3247 2.14948 9.28777C1.74635 8.25085 1.64087 7.10985 1.84638 6.00905C2.0519 4.90826 2.55917 3.89712 3.30406 3.10349C4.04895 2.30986 4.99799 1.76939 6.03118 1.55043C7.06436 1.33147 8.13529 1.44385 9.10853 1.87336C10.0818 2.30287 10.9136 3.03021 11.4989 3.96342C12.0841 4.89663 12.3965 5.99378 12.3965 7.11614C12.3949 8.62066 11.8333 10.0631 10.8347 11.1269C9.83622 12.1908 8.48239 12.7892 7.07027 12.7909Z" fill="#FDFDFD"/>
</g>
</svg>
