<svg width="122" height="122" viewBox="0 0 122 122" fill="none" xmlns="http://www.w3.org/2000/svg">
<path d="M61 1C27.862 1 1 27.862 1 61C1 94.138 27.862 121 61 121C94.138 121 121 94.138 121 61C121 27.862 94.138 1 61 1Z" fill="#B2B0FF" stroke="#FDFDFD" stroke-width="2" stroke-linecap="round" stroke-linejoin="round"/>
<g clip-path="url(#clip0_666_4298)">
<path d="M83.5 39.8333H77.23L69.515 30H52.4825L44.77 39.8333H38.5C36.5109 39.8333 34.6032 40.6103 33.1967 41.9934C31.7902 43.3765 31 45.2524 31 47.2083V89H91V47.2083C91 45.2524 90.2098 43.3765 88.8033 41.9934C87.3968 40.6103 85.4891 39.8333 83.5 39.8333ZM54.9425 34.9167H67.06L70.915 39.8333H51.085L54.9425 34.9167ZM86 84.0833H36V47.2083C36 46.5563 36.2634 45.9311 36.7322 45.47C37.2011 45.009 37.837 44.75 38.5 44.75H83.5C84.163 44.75 84.7989 45.009 85.2678 45.47C85.7366 45.9311 86 46.5563 86 47.2083V84.0833Z" fill="#FDFDFD"/>
<path d="M61 49.667C58.0333 49.667 55.1332 50.5321 52.6665 52.1528C50.1997 53.7736 48.2771 56.0772 47.1418 58.7724C46.0065 61.4676 45.7094 64.4334 46.2882 67.2946C46.867 70.1558 48.2956 72.784 50.3934 74.8468C52.4912 76.9096 55.1639 78.3144 58.0737 78.8836C60.9834 79.4527 63.9994 79.1606 66.7403 78.0442C69.4811 76.9278 71.8238 75.0373 73.472 72.6117C75.1203 70.186 76 67.3343 76 64.417C75.996 60.5062 74.4144 56.7568 71.6022 53.9915C68.79 51.2262 64.977 49.6709 61 49.667ZM61 74.2503C59.0222 74.2503 57.0888 73.6736 55.4443 72.5931C53.7998 71.5126 52.5181 69.9769 51.7612 68.18C51.0043 66.3832 50.8063 64.4061 51.1922 62.4986C51.578 60.5911 52.5304 58.839 53.9289 57.4638C55.3275 56.0886 57.1093 55.152 59.0491 54.7726C60.9889 54.3932 62.9996 54.5879 64.8268 55.3322C66.6541 56.0764 68.2159 57.3368 69.3147 58.9539C70.4135 60.571 71 62.4721 71 64.417C71 67.025 69.9464 69.5261 68.0711 71.3702C66.1957 73.2143 63.6522 74.2503 61 74.2503Z" fill="#FDFDFD"/>
</g>
<defs>
<clipPath id="clip0_666_4298">
<rect width="60" height="59" fill="white" transform="translate(31 30)"/>
</clipPath>
</defs>
</svg>
