<svg width="188" height="52" viewBox="0 0 188 52" fill="none" xmlns="http://www.w3.org/2000/svg">
<path d="M2.78604 44.5V7.78C2.78604 7.42 2.89404 7.15 3.11004 6.97C3.32604 6.79 3.72204 6.7 4.29804 6.7H9.59004C10.742 6.7 11.84 6.826 12.884 7.078C13.964 7.294 14.936 7.708 15.8 8.32C16.7 8.932 17.402 9.778 17.906 10.858C18.446 11.938 18.716 13.36 18.716 15.124C18.716 17.032 18.446 18.598 17.906 19.822C17.402 21.046 16.754 22 15.962 22.684C15.206 23.332 14.45 23.71 13.694 23.818C14.306 23.854 14.972 23.998 15.692 24.25C16.412 24.466 17.096 24.862 17.744 25.438C18.392 25.978 18.914 26.752 19.31 27.76C19.742 28.768 19.958 30.064 19.958 31.648C19.958 33.196 19.814 34.636 19.526 35.968C19.274 37.264 18.86 38.452 18.284 39.532C17.744 40.576 17.06 41.476 16.232 42.232C15.44 42.952 14.504 43.51 13.424 43.906C12.38 44.302 11.174 44.5 9.80604 44.5H2.78604ZM8.40204 39.694H9.91404C10.454 39.694 10.922 39.532 11.318 39.208C11.714 38.884 12.074 38.416 12.398 37.804C12.722 37.156 12.956 36.364 13.1 35.428C13.28 34.492 13.37 33.394 13.37 32.134C13.37 30.838 13.298 29.83 13.154 29.11C13.01 28.354 12.794 27.778 12.506 27.382C12.218 26.986 11.858 26.734 11.426 26.626C11.03 26.482 10.562 26.41 10.022 26.41H8.40204V39.694ZM8.40204 21.766H9.96804C10.508 21.766 10.976 21.55 11.372 21.118C11.768 20.686 12.074 20.056 12.29 19.228C12.506 18.4 12.614 17.428 12.614 16.312C12.614 14.98 12.488 13.972 12.236 13.288C12.02 12.604 11.714 12.136 11.318 11.884C10.958 11.632 10.544 11.506 10.076 11.506H8.40204V21.766ZM31.4111 45.04C29.6831 45.04 28.1891 44.752 26.9291 44.176C25.7051 43.6 24.6971 42.592 23.9051 41.152C23.1491 39.712 22.5911 37.714 22.2311 35.158C21.8711 32.602 21.6911 29.344 21.6911 25.384C21.6911 20.524 22.0691 16.708 22.8251 13.936C23.5811 11.128 24.7151 9.13 26.2271 7.942C27.7751 6.754 29.7011 6.16 32.0051 6.16C33.7691 6.16 35.2631 6.466 36.4871 7.078C37.7111 7.69 38.7011 8.716 39.4571 10.156C40.2131 11.56 40.7531 13.486 41.0771 15.934C41.4371 18.382 41.6171 21.46 41.6171 25.168C41.6171 30.208 41.2571 34.168 40.5371 37.048C39.8171 39.928 38.7011 41.98 37.1891 43.204C35.7131 44.428 33.7871 45.04 31.4111 45.04ZM31.7351 39.316C32.7431 39.316 33.5171 38.866 34.0571 37.966C34.6331 37.03 35.0291 35.536 35.2451 33.484C35.4971 31.396 35.6231 28.696 35.6231 25.384C35.6231 22.072 35.5331 19.426 35.3531 17.446C35.1731 15.466 34.8131 14.044 34.2731 13.18C33.7691 12.316 32.9951 11.884 31.9511 11.884C30.9431 11.884 30.1511 12.352 29.5751 13.288C28.9991 14.224 28.5851 15.772 28.3331 17.932C28.0811 20.092 27.9551 22.99 27.9551 26.626C27.9551 29.614 28.0451 32.044 28.2251 33.916C28.4411 35.788 28.8191 37.156 29.3591 38.02C29.8991 38.884 30.6911 39.316 31.7351 39.316ZM47.6613 44.5V7.294C47.6613 7.294 47.6973 7.294 47.7693 7.294C47.8773 7.258 48.1833 7.24 48.6873 7.24H52.1433C52.6473 7.24 52.9353 7.258 53.0073 7.294C53.1153 7.294 53.1693 7.294 53.1693 7.294V43.474C53.1693 43.834 53.0793 44.086 52.8993 44.23C52.7553 44.338 52.2873 44.41 51.4953 44.446C50.7393 44.482 49.4613 44.5 47.6613 44.5ZM40.8033 11.884V7.726C40.8033 7.042 41.1453 6.7 41.8293 6.7H60.1893V10.858C60.1893 11.254 60.1173 11.524 59.9733 11.668C59.8293 11.812 59.5593 11.884 59.1633 11.884H40.8033ZM71.6335 35.698L68.9875 27.814C68.8795 27.418 68.6995 26.788 68.4475 25.924C68.1955 25.024 67.9255 24.016 67.6375 22.9C67.3495 21.784 67.0435 20.65 66.7195 19.498C66.4315 18.31 66.1615 17.212 65.9095 16.204C65.6575 15.196 65.4415 14.386 65.2615 13.774C65.1175 13.162 65.0455 12.856 65.0455 12.856L67.2055 6.7L71.7415 20.956C71.9935 21.712 72.2095 22.432 72.3895 23.116C72.5695 23.8 72.7135 24.412 72.8215 24.952C72.9655 25.456 73.0735 25.87 73.1455 26.194C73.2175 26.482 73.2535 26.626 73.2535 26.626C73.2535 26.626 73.2895 26.482 73.3615 26.194C73.4335 25.87 73.5235 25.438 73.6315 24.898C73.7755 24.358 73.9195 23.764 74.0635 23.116C74.2435 22.468 74.4415 21.802 74.6575 21.118L78.7075 7.726L81.2455 12.964C81.2455 12.964 81.1555 13.27 80.9755 13.882C80.8315 14.458 80.6335 15.25 80.3815 16.258C80.1295 17.23 79.8415 18.31 79.5175 19.498C79.2295 20.65 78.9235 21.784 78.5995 22.9C78.2755 24.016 77.9875 25.006 77.7355 25.87C77.5195 26.734 77.3395 27.382 77.1955 27.814L74.4955 35.32C74.4235 35.572 74.2255 35.698 73.9015 35.698H71.6335ZM62.0215 44.5V7.726C62.0215 7.222 62.1295 6.934 62.3455 6.862C62.5615 6.754 62.7955 6.7 63.0475 6.7H67.2055L67.4755 15.88L65.9635 17.23C65.9635 17.23 65.9995 17.446 66.0715 17.878C66.1435 18.274 66.2155 18.85 66.2875 19.606C66.3955 20.362 66.5035 21.262 66.6115 22.306C66.7195 23.314 66.8275 24.412 66.9355 25.6C67.0435 26.752 67.1335 27.976 67.2055 29.272C67.3135 30.568 67.3675 31.882 67.3675 33.214L67.4755 43.474C67.4755 43.834 67.3855 44.086 67.2055 44.23C67.0255 44.338 66.5395 44.41 65.7475 44.446C64.9915 44.482 63.7495 44.5 62.0215 44.5ZM78.6535 44.5L78.8695 33.322C78.9055 31.99 78.9595 30.694 79.0315 29.434C79.1395 28.138 79.2475 26.896 79.3555 25.708C79.4635 24.484 79.5535 23.35 79.6255 22.306C79.7335 21.262 79.8235 20.362 79.8955 19.606C80.0035 18.85 80.0935 18.256 80.1655 17.824C80.2375 17.356 80.2735 17.122 80.2735 17.122L78.7075 15.934V7.726C78.8155 7.366 78.9235 7.114 79.0315 6.97C79.1755 6.79 79.4095 6.7 79.7335 6.7C81.2455 6.7 82.3075 6.7 82.9195 6.7C83.5675 6.7 83.9455 6.7 84.0535 6.7C84.1975 6.7 84.2695 6.7 84.2695 6.7V43.474C84.2695 43.834 84.1795 44.086 83.9995 44.23C83.8555 44.338 83.4055 44.41 82.6495 44.446C81.8935 44.482 80.5615 44.5 78.6535 44.5ZM89.2088 44.608C88.8848 44.608 88.3808 44.59 87.6968 44.554C87.0488 44.518 86.4008 44.464 85.7528 44.392L94.9868 7.618C95.0948 6.934 95.8148 6.592 97.1468 6.592C97.6148 6.592 98.0828 6.61 98.5508 6.646C99.0188 6.682 99.4148 6.718 99.7388 6.754L108.973 43.582C109.045 43.906 108.937 44.158 108.649 44.338C108.361 44.518 107.659 44.608 106.543 44.608C106.183 44.608 105.733 44.59 105.193 44.554C104.653 44.554 104.023 44.536 103.303 44.5L98.9828 24.736C98.8028 23.692 98.6048 22.576 98.3888 21.388C98.1728 20.2 97.9748 19.012 97.7948 17.824C97.6508 16.6 97.5428 15.484 97.4708 14.476C97.3628 15.484 97.2188 16.6 97.0388 17.824C96.8588 19.012 96.6788 20.2 96.4988 21.388C96.3188 22.576 96.1028 23.692 95.8508 24.736L91.7468 43.528C91.6748 43.888 91.5128 44.158 91.2608 44.338C91.0088 44.518 90.3248 44.608 89.2088 44.608ZM91.6928 35.59V30.622H104.113V35.59H91.6928ZM112.187 29.65C111.575 29.65 111.233 29.56 111.161 29.38C111.089 29.164 111.053 28.786 111.053 28.246V7.78C111.053 7.744 111.053 7.564 111.053 7.24C111.089 6.88 111.377 6.7 111.917 6.7H116.669C118.937 6.7 120.827 7.042 122.339 7.726C123.887 8.374 125.039 9.49 125.795 11.074C126.587 12.658 126.983 14.854 126.983 17.662C126.983 20.038 126.695 22 126.119 23.548C125.579 25.096 124.823 26.32 123.851 27.22C122.879 28.12 121.781 28.75 120.557 29.11C119.369 29.47 118.127 29.65 116.831 29.65H112.187ZM110.459 44.5V7.726C110.459 7.726 110.495 7.564 110.567 7.24C110.675 6.88 110.981 6.7 111.485 6.7H114.941C115.481 6.7 115.787 6.88 115.859 7.24C115.931 7.564 115.967 7.726 115.967 7.726V43.474C115.967 43.834 115.877 44.086 115.697 44.23C115.553 44.338 115.085 44.41 114.293 44.446C113.537 44.482 112.259 44.5 110.459 44.5ZM124.877 44.662C124.445 44.662 123.941 44.644 123.365 44.608C122.825 44.572 122.249 44.536 121.637 44.5C121.529 41.368 121.223 38.758 120.719 36.67C120.215 34.582 119.657 32.944 119.045 31.756C118.433 30.568 117.893 29.722 117.425 29.218C116.993 28.714 116.777 28.462 116.777 28.462C116.777 28.462 116.723 28.336 116.615 28.084C116.543 27.832 116.723 27.598 117.155 27.382L120.233 25.6C120.773 25.6 121.115 25.798 121.259 26.194C121.259 26.194 121.565 26.5 122.177 27.112C122.789 27.724 123.491 28.714 124.283 30.082C125.111 31.45 125.849 33.232 126.497 35.428C127.181 37.588 127.577 40.234 127.685 43.366C127.685 43.834 127.541 44.176 127.253 44.392C127.001 44.572 126.209 44.662 124.877 44.662ZM115.967 24.574H117.479C118.199 24.574 118.793 24.376 119.261 23.98C119.765 23.548 120.143 22.81 120.395 21.766C120.683 20.722 120.827 19.264 120.827 17.392C120.827 16.06 120.719 14.962 120.503 14.098C120.323 13.198 120.017 12.55 119.585 12.154C119.153 11.722 118.559 11.506 117.803 11.506H115.967V24.574ZM145.353 44.608C144.741 44.608 144.111 44.59 143.463 44.554C142.815 44.518 142.149 44.482 141.465 44.446C141.321 42.646 141.159 40.936 140.979 39.316C140.799 37.66 140.547 36.13 140.223 34.726C139.935 33.286 139.521 31.99 138.981 30.838C138.477 29.65 137.847 28.624 137.091 27.76C136.659 27.292 136.173 26.932 135.633 26.68C135.129 26.392 134.607 26.212 134.067 26.14V25.276L142.005 7.024C142.689 6.88 143.337 6.79 143.949 6.754C144.561 6.682 145.101 6.646 145.569 6.646C147.513 6.646 148.287 7.132 147.891 8.104L140.925 22.9C142.941 24.664 144.507 27.31 145.623 30.838C146.739 34.33 147.423 38.524 147.675 43.42C147.675 43.852 147.531 44.158 147.243 44.338C146.955 44.518 146.325 44.608 145.353 44.608ZM129.693 44.5V7.726C129.693 7.366 129.765 7.132 129.909 7.024C130.089 6.88 130.557 6.79 131.313 6.754C132.069 6.718 133.383 6.7 135.255 6.7V43.474C135.255 43.834 135.183 44.086 135.039 44.23C134.895 44.338 134.427 44.41 133.635 44.446C132.843 44.482 131.529 44.5 129.693 44.5ZM150.197 44.5V7.726C150.197 7.726 150.233 7.564 150.305 7.24C150.413 6.88 150.719 6.7 151.223 6.7H164.129C164.129 8.176 164.111 9.256 164.075 9.94C164.075 10.624 164.003 11.074 163.859 11.29C163.715 11.506 163.481 11.614 163.157 11.614H155.705V39.586H163.805C163.805 41.098 163.787 42.214 163.751 42.934C163.751 43.618 163.679 44.05 163.535 44.23C163.391 44.41 163.157 44.5 162.833 44.5H150.197ZM150.683 26.518V21.496H162.725C162.725 23.548 162.689 24.898 162.617 25.546C162.545 26.194 162.257 26.518 161.753 26.518H150.683ZM171.986 44.5V7.294C171.986 7.294 172.022 7.294 172.094 7.294C172.202 7.258 172.508 7.24 173.012 7.24H176.468C176.972 7.24 177.26 7.258 177.332 7.294C177.44 7.294 177.494 7.294 177.494 7.294V43.474C177.494 43.834 177.404 44.086 177.224 44.23C177.08 44.338 176.612 44.41 175.82 44.446C175.064 44.482 173.786 44.5 171.986 44.5ZM165.128 11.884V7.726C165.128 7.042 165.47 6.7 166.154 6.7H184.514V10.858C184.514 11.254 184.442 11.524 184.298 11.668C184.154 11.812 183.884 11.884 183.488 11.884H165.128Z" fill="url(#paint0_linear_3415_15865)"/>
<defs>
<linearGradient id="paint0_linear_3415_15865" x1="-6.54916e-07" y1="26.4245" x2="186" y2="26.4245" gradientUnits="userSpaceOnUse">
<stop offset="0.276042" stop-color="#726EFA"/>
<stop offset="1" stop-color="#FF8F6E"/>
</linearGradient>
</defs>
</svg>
