<svg width="16" height="16" viewBox="0 0 16 16" fill="none" xmlns="http://www.w3.org/2000/svg">
<path fill-rule="evenodd" clip-rule="evenodd" d="M1.07107 15.0711C0.770665 14.7707 0.770664 14.2836 1.07107 13.9832L14.1253 0.928932C14.4257 0.628529 14.9128 0.628529 15.2132 0.928932C15.5136 1.22934 15.5136 1.71639 15.2132 2.01679L2.15892 15.0711C1.85852 15.3715 1.37147 15.3715 1.07107 15.0711Z" fill="#1E1E1E"/>
<path fill-rule="evenodd" clip-rule="evenodd" d="M15.2132 15.0711C14.9128 15.3715 14.4257 15.3715 14.1253 15.0711L1.07107 2.01679C0.770665 1.71639 0.770665 1.22934 1.07107 0.928932C1.37147 0.628529 1.85852 0.628529 2.15892 0.928932L15.2132 13.9832C15.5136 14.2836 15.5136 14.7707 15.2132 15.0711Z" fill="#1E1E1E"/>
</svg>
