<svg width="24" height="24" viewBox="0 0 24 24" fill="none" xmlns="http://www.w3.org/2000/svg">
<g clip-path="url(#clip0_205_4212)">
<path fill-rule="evenodd" clip-rule="evenodd" d="M3.5147 20.4853C3.15422 20.1248 3.15422 19.5403 3.5147 19.1799L19.1798 3.51472C19.5403 3.15424 20.1248 3.15424 20.4853 3.51472C20.8457 3.8752 20.8457 4.45966 20.4853 4.82015L4.82013 20.4853C4.45964 20.8458 3.87518 20.8458 3.5147 20.4853Z" fill="#1E1E1E"/>
<path fill-rule="evenodd" clip-rule="evenodd" d="M20.4853 20.4853C20.1248 20.8458 19.5403 20.8458 19.1798 20.4853L3.5147 4.82015C3.15422 4.45966 3.15422 3.8752 3.5147 3.51472C3.87518 3.15423 4.45964 3.15424 4.82013 3.51472L20.4853 19.1799C20.8457 19.5403 20.8457 20.1248 20.4853 20.4853Z" fill="#1E1E1E"/>
</g>
<defs>
<clipPath id="clip0_205_4212">
<rect width="24" height="24" fill="white"/>
</clipPath>
</defs>
</svg>
