<svg width="40" height="40" viewBox="0 0 40 40" fill="none" xmlns="http://www.w3.org/2000/svg">
<g id="ci:mail">
<path id="Vector" d="M5.77778 10.1098L16.6364 18.3089L16.64 18.3125C17.8453 19.196 18.448 19.6387 19.1093 19.8094C19.6935 19.9605 20.3065 19.9605 20.8907 19.8094C21.552 19.6387 22.1564 19.196 23.3653 18.3089C23.3653 18.3089 30.3289 12.9649 34.2222 10.1098M4 27.532V14.0209C4 12.0298 4 11.0343 4.38756 10.2734C4.72889 9.60314 5.27111 9.06092 5.94133 8.71959C6.70222 8.33203 7.69778 8.33203 9.68889 8.33203H30.3111C32.3022 8.33203 33.2978 8.33203 34.0569 8.71959C34.7271 9.06092 35.2711 9.60314 35.6124 10.2734C36 11.0325 36 12.028 36 14.0156V27.5391C36 29.5267 36 30.5187 35.6124 31.2796C35.2709 31.9487 34.7264 32.4926 34.0569 32.8334C33.2978 33.2209 32.304 33.2209 30.3164 33.2209H9.68356C7.696 33.2209 6.70044 33.2209 5.94133 32.8334C5.27234 32.4925 4.72843 31.9486 4.38756 31.2796C4 30.5187 4 29.5231 4 27.532Z" stroke="#726EFA" stroke-width="3" stroke-linecap="round" stroke-linejoin="round"/>
</g>
</svg>
