<svg width="40" height="40" viewBox="0 0 40 40" fill="none" xmlns="http://www.w3.org/2000/svg">
<g id="majesticons:phone-retro-line">
<path id="Vector" d="M29.1666 8.06935C26.6266 7.22768 23.5766 6.66602 20 6.66602C16.425 6.66602 13.3733 7.22768 10.8333 8.06935M29.1666 8.06935C33.0696 9.36131 35.7638 11.3143 37.2943 12.9019C37.9558 13.5881 37.8482 14.6511 37.1742 15.3251L35.326 17.1733C34.6519 17.8474 33.5956 17.952 32.8024 17.4232L30.0572 15.5931C29.5008 15.2222 29.1666 14.5977 29.1666 13.929V8.06935ZM10.8333 8.06935C6.93027 9.36131 4.23607 11.3143 2.70564 12.9019C2.04411 13.5881 2.15172 14.6511 2.82573 15.3251L4.67392 17.1733C5.34804 17.8474 6.40428 17.952 7.19753 17.4232L9.94269 15.5931C10.4991 15.2222 10.8333 14.5977 10.8333 13.929V8.06935ZM7.64329 25.6893L16.0808 17.2518C16.4559 16.8767 16.9646 16.666 17.4951 16.666H22.5049C23.0353 16.666 23.544 16.8767 23.9191 17.2518L32.3566 25.6893C32.9818 26.3143 33.3331 27.162 33.3333 28.046V29.9993C33.3333 30.8834 32.9821 31.7312 32.357 32.3564C31.7319 32.9815 30.884 33.3327 30 33.3327H9.99996C9.1159 33.3327 8.26806 32.9815 7.64294 32.3564C7.01781 31.7312 6.66663 30.8834 6.66663 29.9993V28.046C6.66681 27.162 7.01813 26.3143 7.64329 25.6893Z" stroke="#726EFA" stroke-width="3" stroke-linecap="round" stroke-linejoin="round"/>
</g>
</svg>
