<svg width="40" height="40" viewBox="0 0 40 40" fill="none" xmlns="http://www.w3.org/2000/svg">
<g id="mingcute:map-pin-line" clip-path="url(#clip0_1570_11515)">
<g id="Group">
<path id="Vector" fill-rule="evenodd" clip-rule="evenodd" d="M20 5.55375C19.2996 5.55375 18.6061 5.6917 17.959 5.95972C17.312 6.22775 16.724 6.6206 16.2288 7.11584C15.7335 7.61109 15.3407 8.19903 15.0726 8.8461C14.8046 9.49317 14.6667 10.1867 14.6667 10.8871C14.6667 11.5875 14.8046 12.281 15.0726 12.9281C15.3407 13.5751 15.7335 14.1631 16.2288 14.6583C16.724 15.1536 17.312 15.5464 17.959 15.8144C18.6061 16.0825 19.2996 16.2204 20 16.2204C21.4145 16.2204 22.771 15.6585 23.7712 14.6583C24.7714 13.6581 25.3333 12.3016 25.3333 10.8871C25.3333 9.47259 24.7714 8.11604 23.7712 7.11584C22.771 6.11565 21.4145 5.55375 20 5.55375ZM11.1111 10.8871C11.1115 9.20525 11.5889 7.55802 12.4881 6.13672C13.3872 4.71542 14.6711 3.57836 16.1907 2.85762C17.7102 2.13687 19.4031 1.86201 21.0726 2.06496C22.7422 2.26791 24.3199 2.94035 25.6225 4.00416C26.9252 5.06798 27.8993 6.47952 28.4317 8.07485C28.9641 9.67018 29.033 11.3838 28.6304 13.0168C28.2278 14.6497 27.3702 16.1349 26.1572 17.2999C24.9442 18.4649 23.4256 19.2618 21.7778 19.5982V28.6649C21.7778 29.1364 21.5905 29.5885 21.2571 29.9219C20.9237 30.2553 20.4715 30.4426 20 30.4426C19.5285 30.4426 19.0763 30.2553 18.7429 29.9219C18.4095 29.5885 18.2222 29.1364 18.2222 28.6649V19.5982C16.2148 19.1877 14.4107 18.0966 13.1149 16.5094C11.8192 14.9221 11.1114 12.9361 11.1111 10.8871ZM15.536 27.0649C15.5714 27.2958 15.5609 27.5314 15.5051 27.7582C15.4494 27.9851 15.3495 28.1987 15.2111 28.3869C15.0728 28.5752 14.8987 28.7343 14.6988 28.8552C14.4989 28.9761 14.2772 29.0564 14.0462 29.0915C11.7742 29.4364 9.96978 29.9609 8.784 30.5404C6.61511 31.6017 9.15022 32.3644 10.4729 32.7769C12.832 33.5146 16.2009 33.9982 20 33.9982C23.7991 33.9982 27.168 33.5146 29.5271 32.7769C30.8587 32.3609 33.3849 31.6035 31.216 30.5404C30.0302 29.9609 28.2258 29.4382 25.9538 29.0915C25.7203 29.0595 25.4955 28.9814 25.2925 28.8617C25.0895 28.742 24.9123 28.5831 24.7713 28.3943C24.6302 28.2055 24.5281 27.9906 24.4709 27.762C24.4136 27.5334 24.4024 27.2956 24.4379 27.0627C24.4734 26.8297 24.5548 26.6061 24.6775 26.4049C24.8001 26.2036 24.9616 26.0288 25.1525 25.8906C25.3433 25.7523 25.5597 25.6534 25.7892 25.5995C26.0186 25.5457 26.2565 25.538 26.4889 25.5769C28.9564 25.9502 31.1502 26.5493 32.7804 27.3475C34.352 28.1173 36 29.4133 36 31.3315C36 32.7733 35.0684 33.8204 34.1618 34.4906C30.3396 37.3138 24.5084 37.5537 20 37.5537C15.9431 37.5537 12.2009 37.0418 9.41333 36.1706C7.19111 35.4773 4 34.1084 4 31.3315C4 29.4115 5.648 28.1173 7.21956 27.3493C8.84978 26.5493 11.0453 25.952 13.5093 25.5769C13.7402 25.5415 13.9759 25.552 14.2027 25.6077C14.4296 25.6635 14.6432 25.7634 14.8314 25.9017C15.0196 26.0401 15.1787 26.2142 15.2996 26.4141C15.4205 26.614 15.5008 26.8339 15.536 27.0649Z" fill="#726EFA"/>
</g>
</g>
<defs>
<clipPath id="clip0_1570_11515">
<rect width="40" height="40" fill="white"/>
</clipPath>
</defs>
</svg>
