<svg width="40" height="40" viewBox="0 0 40 40" fill="none" xmlns="http://www.w3.org/2000/svg">
<g id="Frame 297">
<g id="galaFileDocument0">
<path id="galaFileDocument1" d="M4.00012 7.16797V32.9883" stroke="#726EFA" stroke-width="3" stroke-linecap="round"/>
<path id="galaFileDocument2" d="M34.999 14.918V33.0009" stroke="#726EFA" stroke-width="3" stroke-linecap="round" stroke-linejoin="round"/>
<path id="galaFileDocument3" d="M9.16736 2H22.0837" stroke="#726EFA" stroke-width="3" stroke-linecap="round" stroke-linejoin="round"/>
<path id="galaFileDocument4" d="M9.16736 38.168H29.8335" stroke="#726EFA" stroke-width="3" stroke-linecap="round"/>
<path id="galaFileDocument5" d="M35.0003 33C35.0144 35.5803 32.417 38.1665 29.8337 38.1665" stroke="#726EFA" stroke-width="3" stroke-linecap="round" stroke-linejoin="round"/>
<path id="galaFileDocument6" d="M4.00082 33C4.00082 35.5833 6.58409 38.1665 9.16736 38.1665" stroke="#726EFA" stroke-width="3" stroke-linecap="round" stroke-linejoin="round"/>
<path id="galaFileDocument7" d="M4.00082 7.16211C4.00082 4.58259 6.58409 2.05685 9.16736 1.99932" stroke="#726EFA" stroke-width="3" stroke-linecap="round" stroke-linejoin="round"/>
<path id="galaFileDocument8" d="M34.9845 14.9279L22.0823 2" stroke="#726EFA" stroke-width="3" stroke-linecap="round" stroke-linejoin="round"/>
<path id="galaFileDocument9" d="M22.0835 9.75C22.0914 12.3192 24.6771 14.9165 27.25 14.9165" stroke="#726EFA" stroke-width="3" stroke-linecap="round" stroke-linejoin="round"/>
<path id="galaFileDocumenta" d="M22.0823 9.74981V2" stroke="#726EFA" stroke-width="3" stroke-linecap="round" stroke-linejoin="round"/>
<path id="galaFileDocumentb" d="M27.25 14.918H34.9998" stroke="#726EFA" stroke-width="3" stroke-linecap="round" stroke-linejoin="round"/>
<path id="galaFileDocumentd" d="M9.16736 27.834H22.0837" stroke="#726EFA" stroke-width="3" stroke-linecap="round" stroke-linejoin="round"/>
<path id="galaFileDocumente" d="M9.16736 22.666H16.9172" stroke="#726EFA" stroke-width="3" stroke-linecap="round" stroke-linejoin="round"/>
</g>
</g>
</svg>
