<svg width="20" height="20" viewBox="0 0 20 20" fill="none" xmlns="http://www.w3.org/2000/svg">
<g clip-path="url(#clip0_3182_539)">
<path d="M18.7927 1.3453C18.2262 0.77963 17.4583 0.461914 16.6577 0.461914C15.8571 0.461914 15.0892 0.77963 14.5227 1.3453L-0.324219 16.1919V20.4619H3.94584L18.7927 5.61529C19.3582 5.04864 19.6758 4.28081 19.6758 3.48029C19.6758 2.67977 19.3582 1.91194 18.7927 1.3453ZM3.25917 18.7953H1.34247V16.8786L12.4343 5.79529L14.351 7.71195L3.25917 18.7953ZM17.6144 4.43696L15.5252 6.52612L13.6127 4.60946L15.701 2.52363C15.9552 2.26946 16.2999 2.12667 16.6594 2.12667C17.0188 2.12667 17.3635 2.26946 17.6177 2.52363C17.8719 2.77779 18.0147 3.12252 18.0147 3.48196C18.0147 3.8414 17.8719 4.18612 17.6177 4.44029L17.6144 4.43696Z" fill="#726EFA"/>
</g>
<defs>
<clipPath id="clip0_3182_539">
<rect width="20" height="20" fill="white"/>
</clipPath>
</defs>
</svg>
