<svg width="28" height="28" viewBox="0 0 28 28" fill="none" xmlns="http://www.w3.org/2000/svg">
<path d="M22.7565 9.88047L14.01 18.4065L5.26346 9.88047C5.10719 9.72783 4.89741 9.64237 4.67896 9.64237C4.46051 9.64237 4.25073 9.72783 4.09446 9.88047C4.01879 9.95461 3.95868 10.0431 3.91764 10.1408C3.87661 10.2384 3.85547 10.3433 3.85547 10.4492C3.85547 10.5552 3.87661 10.66 3.91764 10.7577C3.95868 10.8553 4.01879 10.9438 4.09446 11.018L13.3992 20.09C13.5626 20.2492 13.7818 20.3384 14.01 20.3384C14.2381 20.3384 14.4573 20.2492 14.6207 20.09L23.9255 11.0197C24.0017 10.9455 24.0622 10.8568 24.1036 10.7588C24.1449 10.6608 24.1662 10.5556 24.1662 10.4492C24.1662 10.3429 24.1449 10.2376 24.1036 10.1396C24.0622 10.0416 24.0017 9.95291 23.9255 9.87872C23.7692 9.72608 23.5594 9.64062 23.341 9.64062C23.1225 9.64062 22.9127 9.72608 22.7565 9.87872V9.88047Z" fill="#FDFDFD"/>
</svg>
