<svg width="28" height="28" viewBox="0 0 28 28" fill="none" xmlns="http://www.w3.org/2000/svg">
<path d="M5.26502 20.099L14.0115 11.573L22.758 20.099C22.9143 20.2517 23.1241 20.3371 23.3425 20.3371C23.561 20.3371 23.7708 20.2517 23.927 20.099C24.0027 20.0249 24.0628 19.9364 24.1038 19.8387C24.1449 19.7411 24.166 19.6362 24.166 19.5303C24.166 19.4243 24.1449 19.3195 24.1038 19.2218C24.0628 19.1242 24.0027 19.0357 23.927 18.9615L14.6223 9.88953C14.4589 9.73025 14.2397 9.64111 14.0115 9.64111C13.7833 9.64111 13.5642 9.73025 13.4008 9.88953L4.09602 18.9598C4.01982 19.034 3.95926 19.1227 3.9179 19.2207C3.87655 19.3186 3.85524 19.4239 3.85524 19.5303C3.85524 19.6366 3.87655 19.7419 3.9179 19.8399C3.95926 19.9379 4.01982 20.0266 4.09602 20.1008C4.25229 20.2534 4.46208 20.3389 4.68052 20.3389C4.89897 20.3389 5.10875 20.2534 5.26502 20.1008V20.099Z" fill="#FDFDFD"/>
</svg>
