<svg width="25" height="24" viewBox="0 0 25 24" fill="none" xmlns="http://www.w3.org/2000/svg">
<g clip-path="url(#clip0_340_1848)">
<path d="M23.5303 11.3894L23.5304 11.3895C23.6183 11.5811 23.6638 11.7894 23.6638 12C23.6638 12.2106 23.6183 12.4189 23.5304 12.6105L23.5303 12.6106C22.6617 14.5054 19.3322 20.5 12.1338 20.5C4.93546 20.5 1.60602 14.5054 0.73727 12.6124L0.737219 12.6123C0.649104 12.4205 0.603516 12.212 0.603516 12.001C0.603516 11.79 0.649104 11.5815 0.737219 11.3897L0.737353 11.3894C1.60603 9.49456 4.93548 3.5 12.1338 3.5C19.3322 3.5 22.6617 9.49456 23.5303 11.3894ZM12.1338 18.5H12.1343C13.8612 18.4983 15.5171 17.8133 16.7386 16.5949C17.9601 15.3765 18.6473 13.7242 18.6491 12.0005V12C18.6491 10.7141 18.2668 9.45726 17.5507 8.38831C16.8347 7.31937 15.8171 6.48643 14.6267 5.99461C13.4364 5.5028 12.1266 5.37414 10.863 5.62485C9.59944 5.87556 8.43858 6.49441 7.52733 7.40336C6.61606 8.31232 5.99534 9.47056 5.74385 10.7317C5.49236 11.9928 5.62145 13.3 6.11473 14.4879C6.60801 15.6757 7.44326 16.6908 8.51466 17.4049C9.58605 18.1189 10.8455 18.5 12.1338 18.5Z" stroke="#DACDFF"/>
<path d="M15.6443 12C15.6443 13.9318 14.074 15.5 12.1342 15.5C10.1944 15.5 8.62402 13.9318 8.62402 12C8.62402 10.0682 10.1944 8.5 12.1342 8.5C14.074 8.5 15.6443 10.0682 15.6443 12Z" stroke="#DACDFF"/>
</g>
<defs>
<clipPath id="clip0_340_1848">
<rect width="24.0609" height="24" fill="white" transform="translate(0.103516)"/>
</clipPath>
</defs>
</svg>
