<svg width="24" height="24" viewBox="0 0 24 24" fill="none" xmlns="http://www.w3.org/2000/svg">
<path d="M4.29642 11.9999L12.7884 3.27291C12.8583 3.20258 12.9136 3.11908 12.951 3.02725C12.9885 2.93542 13.0073 2.83708 13.0065 2.73791C13.0057 2.63875 12.9852 2.54073 12.9462 2.44953C12.9073 2.35833 12.8506 2.27577 12.7796 2.20661C12.7085 2.13745 12.6244 2.08308 12.5322 2.04663C12.4399 2.01018 12.3414 1.99239 12.2423 1.99428C12.1431 1.99616 12.0453 2.0177 11.9545 2.05763C11.8638 2.09756 11.7818 2.1551 11.7134 2.22691L2.71342 11.4769C2.57719 11.6169 2.50098 11.8046 2.50098 11.9999C2.50098 12.1953 2.57719 12.3829 2.71342 12.5229L11.7134 21.7729C11.7818 21.8447 11.8638 21.9023 11.9545 21.9422C12.0453 21.9821 12.1431 22.0037 12.2423 22.0055C12.3414 22.0074 12.4399 21.9896 12.5322 21.9532C12.6244 21.9167 12.7085 21.8624 12.7796 21.7932C12.8506 21.7241 12.9073 21.6415 12.9462 21.5503C12.9852 21.4591 13.0057 21.3611 13.0065 21.2619C13.0073 21.1627 12.9885 21.0644 12.951 20.9726C12.9136 20.8807 12.8583 20.7972 12.7884 20.7269L4.29642 11.9999Z" fill="#1E1E1E"/>
</svg>
