<svg width="24" height="24" viewBox="0 0 24 24" fill="none" xmlns="http://www.w3.org/2000/svg">
<path d="M10.2004 4.7998H13.8004C13.8004 4.32241 13.6107 3.86458 13.2732 3.52701C12.9356 3.18945 12.4778 2.9998 12.0004 2.9998C11.523 2.9998 11.0652 3.18945 10.7276 3.52701C10.39 3.86458 10.2004 4.32241 10.2004 4.7998ZM9.00039 4.7998C9.00039 4.00416 9.31646 3.24109 9.87907 2.67848C10.4417 2.11588 11.2047 1.7998 12.0004 1.7998C12.796 1.7998 13.5591 2.11588 14.1217 2.67848C14.6843 3.24109 15.0004 4.00416 15.0004 4.7998H21.0004C21.1595 4.7998 21.3121 4.86302 21.4247 4.97554C21.5372 5.08806 21.6004 5.24067 21.6004 5.3998C21.6004 5.55893 21.5372 5.71155 21.4247 5.82407C21.3121 5.93659 21.1595 5.9998 21.0004 5.9998H19.7356L18.3028 18.4126C18.2015 19.29 17.7812 20.0996 17.1218 20.6873C16.4625 21.275 15.61 21.5997 14.7268 21.5998H9.27399C8.39074 21.5997 7.53833 21.275 6.87895 20.6873C6.21958 20.0996 5.79927 19.29 5.69799 18.4126L4.26519 5.9998H3.00039C2.84126 5.9998 2.68865 5.93659 2.57613 5.82407C2.4636 5.71155 2.40039 5.55893 2.40039 5.3998C2.40039 5.24067 2.4636 5.08806 2.57613 4.97554C2.68865 4.86302 2.84126 4.7998 3.00039 4.7998H9.00039ZM6.88959 18.2758C6.9573 18.8607 7.23765 19.4003 7.67729 19.7919C8.11694 20.1835 8.68521 20.3999 9.27399 20.3998H14.7268C15.3156 20.3999 15.8838 20.1835 16.3235 19.7919C16.7631 19.4003 17.0435 18.8607 17.1112 18.2758L18.5272 5.9998H5.47359L6.88959 18.2758ZM10.2004 8.9998C10.3595 8.9998 10.5121 9.06302 10.6247 9.17554C10.7372 9.28806 10.8004 9.44067 10.8004 9.5998V16.7998C10.8004 16.9589 10.7372 17.1115 10.6247 17.2241C10.5121 17.3366 10.3595 17.3998 10.2004 17.3998C10.0413 17.3998 9.88865 17.3366 9.77613 17.2241C9.6636 17.1115 9.60039 16.9589 9.60039 16.7998V9.5998C9.60039 9.44067 9.6636 9.28806 9.77613 9.17554C9.88865 9.06302 10.0413 8.9998 10.2004 8.9998ZM14.4004 9.5998C14.4004 9.44067 14.3372 9.28806 14.2247 9.17554C14.1121 9.06302 13.9595 8.9998 13.8004 8.9998C13.6413 8.9998 13.4886 9.06302 13.3761 9.17554C13.2636 9.28806 13.2004 9.44067 13.2004 9.5998V16.7998C13.2004 16.9589 13.2636 17.1115 13.3761 17.2241C13.4886 17.3366 13.6413 17.3998 13.8004 17.3998C13.9595 17.3998 14.1121 17.3366 14.2247 17.2241C14.3372 17.1115 14.4004 16.9589 14.4004 16.7998V9.5998Z" fill="#726EFA"/>
</svg>
