<svg width="24" height="24" viewBox="0 0 24 24" fill="none" xmlns="http://www.w3.org/2000/svg">
<path d="M9.00039 20.3996C8.84126 20.3996 8.68865 20.3364 8.57613 20.2239C8.4636 20.1114 8.40039 19.9587 8.40039 19.7996C8.40039 19.6405 8.4636 19.4879 8.57613 19.3753C8.68865 19.2628 8.84126 19.1996 9.00039 19.1996H16.8004C17.4369 19.1996 18.0474 18.9468 18.4974 18.4967C18.9475 18.0466 19.2004 17.4361 19.2004 16.7996V7.19961C19.2004 6.56309 18.9475 5.95264 18.4974 5.50255C18.0474 5.05247 17.4369 4.79961 16.8004 4.79961H9.00039C8.84126 4.79961 8.68865 4.7364 8.57613 4.62387C8.4636 4.51135 8.40039 4.35874 8.40039 4.19961C8.40039 4.04048 8.4636 3.88787 8.57613 3.77535C8.68865 3.66282 8.84126 3.59961 9.00039 3.59961H16.8004C17.7552 3.59961 18.6708 3.97889 19.346 4.65402C20.0211 5.32916 20.4004 6.24483 20.4004 7.19961V16.7996C20.4004 17.7544 20.0211 18.6701 19.346 19.3452C18.6708 20.0203 17.7552 20.3996 16.8004 20.3996H9.00039ZM7.62519 7.37481C7.56946 7.31893 7.50324 7.2746 7.43035 7.24435C7.35746 7.21411 7.27931 7.19854 7.20039 7.19854C7.12147 7.19854 7.04332 7.21411 6.97043 7.24435C6.89754 7.2746 6.83132 7.31893 6.77559 7.37481L2.57559 11.5748C2.51971 11.6305 2.47538 11.6968 2.44513 11.7696C2.41489 11.8425 2.39932 11.9207 2.39932 11.9996C2.39932 12.0785 2.41489 12.1567 2.44513 12.2296C2.47538 12.3025 2.51971 12.3687 2.57559 12.4244L6.77559 16.6244C6.83138 16.6802 6.8976 16.7244 6.97049 16.7546C7.04338 16.7848 7.1215 16.8004 7.20039 16.8004C7.27928 16.8004 7.3574 16.7848 7.43029 16.7546C7.50318 16.7244 7.5694 16.6802 7.62519 16.6244C7.68098 16.5686 7.72523 16.5024 7.75542 16.4295C7.78561 16.3566 7.80115 16.2785 7.80115 16.1996C7.80115 16.1207 7.78561 16.0426 7.75542 15.9697C7.72523 15.8968 7.68098 15.8306 7.62519 15.7748L4.44879 12.5996H15.0004C15.1595 12.5996 15.3121 12.5364 15.4247 12.4239C15.5372 12.3114 15.6004 12.1587 15.6004 11.9996C15.6004 11.8405 15.5372 11.6879 15.4247 11.5753C15.3121 11.4628 15.1595 11.3996 15.0004 11.3996H4.44879L7.62519 8.22441C7.68107 8.16867 7.7254 8.10246 7.75564 8.02957C7.78589 7.95668 7.80146 7.87853 7.80146 7.79961C7.80146 7.72069 7.78589 7.64254 7.75564 7.56965C7.7254 7.49675 7.68107 7.43054 7.62519 7.37481Z" fill="#726EFA"/>
</svg>
