<svg width="28" height="28" viewBox="0 0 28 28" fill="none" xmlns="http://www.w3.org/2000/svg">
<path d="M14.0001 1C6.82022 1 1.00012 6.8201 1.00012 14C1.00012 21.1799 6.82022 27 14.0001 27C21.18 27 27.0001 21.1799 27.0001 14C27.0001 6.8201 21.18 1 14.0001 1Z" stroke="#1E1E1E" stroke-width="2" stroke-linecap="round" stroke-linejoin="round"/>
<path d="M3.95227 22.2495C3.95227 22.2495 6.84997 18.5497 14 18.5497C21.15 18.5497 24.049 22.2495 24.049 22.2495M14 13.9997C15.0343 13.9997 16.0263 13.5888 16.7577 12.8574C17.4891 12.126 17.9 11.1341 17.9 10.0997C17.9 9.06536 17.4891 8.07338 16.7577 7.34199C16.0263 6.6106 15.0343 6.19971 14 6.19971C12.9656 6.19971 11.9736 6.6106 11.2423 7.34199C10.5109 8.07338 10.1 9.06536 10.1 10.0997C10.1 11.1341 10.5109 12.126 11.2423 12.8574C11.9736 13.5888 12.9656 13.9997 14 13.9997Z" stroke="#1E1E1E" stroke-width="2" stroke-linecap="round" stroke-linejoin="round"/>
</svg>
