<svg width="20" height="20" viewBox="0 0 20 20" fill="none" xmlns="http://www.w3.org/2000/svg">
<path d="M9.95768 14.9993C10.2493 14.9993 10.496 14.8985 10.6977 14.6968C10.8988 14.4957 10.9993 14.2493 10.9993 13.9577C10.9993 13.666 10.8988 13.4196 10.6977 13.2185C10.496 13.0168 10.2493 12.916 9.95768 12.916C9.66602 12.916 9.41935 13.0168 9.21768 13.2185C9.01657 13.4196 8.91602 13.666 8.91602 13.9577C8.91602 14.2493 9.01657 14.4957 9.21768 14.6968C9.41935 14.8985 9.66602 14.9993 9.95768 14.9993ZM10.0827 6.41602C10.4716 6.41602 10.7841 6.52352 11.0202 6.73852C11.2563 6.95407 11.3743 7.23546 11.3743 7.58268C11.3743 7.81879 11.2946 8.05824 11.1352 8.30102C10.9752 8.54435 10.7493 8.79796 10.4577 9.06185C10.041 9.42296 9.73546 9.77018 9.54102 10.1035C9.34657 10.4368 9.24935 10.7702 9.24935 11.1035C9.24935 11.298 9.3224 11.461 9.46852 11.5927C9.61407 11.7249 9.78407 11.791 9.97852 11.791C10.173 11.791 10.3466 11.7216 10.4993 11.5827C10.6521 11.4438 10.7493 11.2702 10.791 11.0618C10.8327 10.8257 10.9266 10.6071 11.0727 10.406C11.2182 10.2043 11.4577 9.94379 11.791 9.62435C12.2216 9.22157 12.5238 8.85352 12.6977 8.52018C12.871 8.18685 12.9577 7.81879 12.9577 7.41602C12.9577 6.70768 12.6905 6.12768 12.156 5.67602C11.621 5.2249 10.9299 4.99935 10.0827 4.99935C9.49935 4.99935 8.98213 5.11046 8.53102 5.33268C8.07935 5.5549 7.72852 5.89518 7.47852 6.35352C7.38129 6.53407 7.34657 6.71102 7.37435 6.88435C7.40213 7.05824 7.49935 7.20074 7.66602 7.31185C7.84657 7.42296 8.04463 7.45768 8.26018 7.41602C8.47518 7.37435 8.65213 7.25629 8.79102 7.06185C8.94379 6.85352 9.12796 6.69379 9.34352 6.58268C9.55852 6.47157 9.8049 6.41602 10.0827 6.41602ZM9.99935 18.3327C8.86046 18.3327 7.78407 18.1138 6.77018 17.676C5.75629 17.2388 4.87102 16.6452 4.11435 15.8952C3.35713 15.1452 2.7599 14.2632 2.32268 13.2493C1.8849 12.2355 1.66602 11.1521 1.66602 9.99935C1.66602 8.84657 1.8849 7.76324 2.32268 6.74935C2.7599 5.73546 3.35713 4.85352 4.11435 4.10352C4.87102 3.35352 5.75629 2.75963 6.77018 2.32185C7.78407 1.88463 8.86046 1.66602 9.99935 1.66602C11.166 1.66602 12.2563 1.88463 13.2702 2.32185C14.2841 2.75963 15.166 3.35352 15.916 4.10352C16.666 4.85352 17.2563 5.73546 17.6868 6.74935C18.1174 7.76324 18.3327 8.84657 18.3327 9.99935C18.3327 11.1521 18.1174 12.2355 17.6868 13.2493C17.2563 14.2632 16.666 15.1452 15.916 15.8952C15.166 16.6452 14.2841 17.2388 13.2702 17.676C12.2563 18.1138 11.166 18.3327 9.99935 18.3327ZM9.99935 16.666C11.8605 16.666 13.4368 16.0168 14.7285 14.7185C16.0202 13.4196 16.666 11.8466 16.666 9.99935C16.666 8.15213 16.0202 6.57907 14.7285 5.28018C13.4368 3.98185 11.8605 3.33268 9.99935 3.33268C8.1799 3.33268 6.61379 3.98185 5.30102 5.28018C3.98879 6.57907 3.33268 8.15213 3.33268 9.99935C3.33268 11.8466 3.98879 13.4196 5.30102 14.7185C6.61379 16.0168 8.1799 16.666 9.99935 16.666Z" fill="#726EFA"/>
</svg>
