<svg xmlns="http://www.w3.org/2000/svg" width="28" height="29" viewBox="0 0 28 29" fill="none">
  <path fill-rule="evenodd" clip-rule="evenodd" d="M21.4369 16.4938C21.0871 17.7992 20.3998 18.9896 19.4441 19.9452C18.4885 20.9009 17.2981 21.5882 15.9927 21.9381C14.6873 22.288 13.3128 22.2881 12.0073 21.9384C10.7018 21.5888 9.51132 20.9017 8.55551 19.9462L8.11871 19.5108H11.5249C11.8034 19.5108 12.0705 19.4002 12.2674 19.2032C12.4643 19.0063 12.5749 18.7393 12.5749 18.4608C12.5749 18.1823 12.4643 17.9152 12.2674 17.7183C12.0705 17.5214 11.8034 17.4108 11.5249 17.4108H5.58471C5.30623 17.4108 5.03916 17.5214 4.84224 17.7183C4.64533 17.9152 4.53471 18.1823 4.53471 18.4608V24.3996C4.53471 24.6781 4.64533 24.9451 4.84224 25.142C5.03916 25.339 5.30623 25.4496 5.58471 25.4496C5.86318 25.4496 6.13025 25.339 6.32717 25.142C6.52408 24.9451 6.63471 24.6781 6.63471 24.3996V20.9976L7.06871 21.4316C8.28509 22.6483 9.80033 23.5233 11.4621 23.9687C13.1239 24.4141 14.8736 24.4142 16.5355 23.9689C18.1973 23.5237 19.7126 22.6488 20.9291 21.4322C22.1456 20.2156 23.0204 18.7002 23.4655 17.0384C23.5379 16.7694 23.5005 16.4826 23.3615 16.2412C23.2224 15.9998 22.9932 15.8235 22.7242 15.7511C22.4552 15.6787 22.1684 15.7161 21.927 15.8551C21.6856 15.9941 21.5093 16.2248 21.4369 16.4938ZM23.1589 11.2816C23.3554 11.0846 23.4656 10.8178 23.4655 10.5396V4.60078C23.4655 4.3223 23.3549 4.05523 23.158 3.85832C22.9611 3.66141 22.694 3.55078 22.4155 3.55078C22.137 3.55078 21.87 3.66141 21.673 3.85832C21.4761 4.05523 21.3655 4.3223 21.3655 4.60078V8.00418L20.9315 7.57018C19.7151 6.3535 18.1999 5.47848 16.5381 5.03308C14.8763 4.58768 13.1266 4.5876 11.4647 5.03285C9.80292 5.47811 8.2876 6.353 7.07111 7.56957C5.85462 8.78615 4.97984 10.3015 4.53471 11.9634C4.49425 12.0979 4.48121 12.2392 4.49635 12.3789C4.5115 12.5186 4.55453 12.6538 4.6229 12.7766C4.69126 12.8994 4.78356 13.0071 4.89434 13.0936C5.00512 13.18 5.13212 13.2433 5.26781 13.2798C5.40351 13.3162 5.54514 13.3251 5.68432 13.3058C5.8235 13.2865 5.95739 13.2395 6.07806 13.1675C6.19874 13.0956 6.30374 13.0001 6.38685 12.8868C6.46996 12.7735 6.52949 12.6447 6.56191 12.508C6.9113 11.2019 7.59844 10.0108 8.55422 9.05454C9.51 8.09827 10.7007 7.41052 12.0066 7.06045C13.3126 6.71038 14.6876 6.71034 15.9936 7.06032C17.2995 7.4103 18.4903 8.09798 19.4461 9.05418L19.8815 9.48818H16.4767C16.1982 9.48818 15.9312 9.59881 15.7342 9.79572C15.5373 9.99263 15.4267 10.2597 15.4267 10.5382C15.4267 10.8167 15.5373 11.0837 15.7342 11.2806C15.9312 11.4776 16.1982 11.5882 16.4767 11.5882H22.4169C22.6951 11.5883 22.962 11.478 23.1589 11.2816Z" fill="#FF8F6E"/>
</svg>