<svg width="28" height="28" viewBox="0 0 28 28" fill="none" xmlns="http://www.w3.org/2000/svg">
<path fill-rule="evenodd" clip-rule="evenodd" d="M21.4369 15.9938C21.0871 17.2992 20.3998 18.4896 19.4441 19.4452C18.4885 20.4009 17.2981 21.0882 15.9927 21.4381C14.6873 21.788 13.3128 21.7881 12.0073 21.4384C10.7018 21.0888 9.51132 20.4017 8.55551 19.4462L8.11871 19.0108H11.5249C11.8034 19.0108 12.0705 18.9002 12.2674 18.7032C12.4643 18.5063 12.5749 18.2393 12.5749 17.9608C12.5749 17.6823 12.4643 17.4152 12.2674 17.2183C12.0705 17.0214 11.8034 16.9108 11.5249 16.9108H5.58471C5.30623 16.9108 5.03916 17.0214 4.84224 17.2183C4.64533 17.4152 4.53471 17.6823 4.53471 17.9608V23.8996C4.53471 24.1781 4.64533 24.4451 4.84224 24.642C5.03916 24.839 5.30623 24.9496 5.58471 24.9496C5.86318 24.9496 6.13025 24.839 6.32717 24.642C6.52408 24.4451 6.63471 24.1781 6.63471 23.8996V20.4976L7.06871 20.9316C8.28509 22.1483 9.80033 23.0233 11.4621 23.4687C13.1239 23.9141 14.8736 23.9142 16.5355 23.4689C18.1973 23.0237 19.7126 22.1488 20.9291 20.9322C22.1456 19.7156 23.0204 18.2002 23.4655 16.5384C23.5379 16.2694 23.5005 15.9826 23.3615 15.7412C23.2224 15.4998 22.9932 15.3235 22.7242 15.2511C22.4552 15.1787 22.1684 15.2161 21.927 15.3551C21.6856 15.4941 21.5093 15.7248 21.4369 15.9938ZM23.1589 10.7816C23.3554 10.5846 23.4656 10.3178 23.4655 10.0396V4.10078C23.4655 3.8223 23.3549 3.55523 23.158 3.35832C22.9611 3.16141 22.694 3.05078 22.4155 3.05078C22.137 3.05078 21.87 3.16141 21.673 3.35832C21.4761 3.55523 21.3655 3.8223 21.3655 4.10078V7.50418L20.9315 7.07018C19.7151 5.8535 18.1999 4.97848 16.5381 4.53308C14.8763 4.08768 13.1266 4.0876 11.4647 4.53285C9.80292 4.97811 8.2876 5.853 7.07111 7.06957C5.85462 8.28615 4.97984 9.80153 4.53471 11.4634C4.49425 11.5979 4.48121 11.7392 4.49635 11.8789C4.5115 12.0186 4.55453 12.1538 4.6229 12.2766C4.69126 12.3994 4.78356 12.5071 4.89434 12.5936C5.00512 12.68 5.13212 12.7433 5.26781 12.7798C5.40351 12.8162 5.54514 12.8251 5.68432 12.8058C5.8235 12.7865 5.95739 12.7395 6.07806 12.6675C6.19874 12.5956 6.30374 12.5001 6.38685 12.3868C6.46996 12.2735 6.52949 12.1447 6.56191 12.008C6.9113 10.7019 7.59844 9.51081 8.55422 8.55454C9.51 7.59827 10.7007 6.91052 12.0066 6.56045C13.3126 6.21038 14.6876 6.21034 15.9936 6.56032C17.2995 6.9103 18.4903 7.59798 19.4461 8.55418L19.8815 8.98818H16.4767C16.1982 8.98818 15.9312 9.09881 15.7342 9.29572C15.5373 9.49263 15.4267 9.7597 15.4267 10.0382C15.4267 10.3167 15.5373 10.5837 15.7342 10.7806C15.9312 10.9776 16.1982 11.0882 16.4767 11.0882H22.4169C22.6951 11.0883 22.962 10.978 23.1589 10.7816Z" fill="#726EFA"/>
</svg>
