<svg width="24" height="24" viewBox="0 0 24 24" fill="none" xmlns="http://www.w3.org/2000/svg">
<g id="ic:cross-24" clip-path="url(#clip0_721_6295)">
<g id="Vector">
<path fill-rule="evenodd" clip-rule="evenodd" d="M3.51458 20.4853C3.15409 20.1248 3.15409 19.5403 3.51458 19.1799L19.1797 3.51472C19.5402 3.15424 20.1247 3.15424 20.4851 3.51472C20.8456 3.8752 20.8456 4.45966 20.4851 4.82015L4.82001 20.4853C4.45952 20.8458 3.87506 20.8458 3.51458 20.4853Z" fill="#352DF2"/>
<path fill-rule="evenodd" clip-rule="evenodd" d="M20.4851 20.4853C20.1247 20.8458 19.5402 20.8458 19.1797 20.4853L3.51458 4.82015C3.15409 4.45966 3.15409 3.8752 3.51458 3.51472C3.87506 3.15423 4.45952 3.15424 4.82001 3.51472L20.4851 19.1799C20.8456 19.5403 20.8456 20.1248 20.4851 20.4853Z" fill="#352DF2"/>
</g>
</g>
<defs>
<clipPath id="clip0_721_6295">
<rect width="24" height="24" fill="white"/>
</clipPath>
</defs>
</svg>
