<svg width="28" height="28" viewBox="0 0 28 28" fill="none" xmlns="http://www.w3.org/2000/svg">
<path d="M27.7703 4.45837C27.8894 3.84143 27.4168 3.26879 26.7884 3.26879H4.949L4.9 2.88634C4.79972 2.09139 4.39061 1.35843 3.75024 0.826434C3.10986 0.294434 2.28273 0.000372417 1.42567 0L1 0C0.447715 0 0 0.447715 0 1V1.17919C0 1.73148 0.447715 2.17919 1 2.17919H1.42567C1.71142 2.17923 1.98723 2.27721 2.20077 2.45455C2.41431 2.63189 2.55073 2.87626 2.58417 3.1413L4.43333 17.816C4.53361 18.6109 4.94272 19.3439 5.5831 19.8759C6.22347 20.4079 7.0506 20.7019 7.90767 20.7023H22.3333C22.8856 20.7023 23.3333 20.2546 23.3333 19.7023V19.5231C23.3333 18.9708 22.8856 18.5231 22.3333 18.5231H7.90767C7.62173 18.5231 7.34578 18.4249 7.13221 18.2474C6.91864 18.0698 6.78233 17.8252 6.74917 17.5599L6.73769 17.4686C6.66265 16.8716 7.12812 16.3439 7.72989 16.3439H24.65C25.1291 16.3439 25.541 16.004 25.6318 15.5335L27.7703 4.45837ZM23.6812 13.3544C23.5903 13.8248 23.1785 14.1647 22.6993 14.1647H7.20412C6.70015 14.1647 6.27493 13.7897 6.21196 13.2897L5.36602 6.57293C5.29081 5.97578 5.75631 5.44798 6.35818 5.44798H23.9966C24.6249 5.44798 25.0976 6.02066 24.9784 6.63761L23.6812 13.3544Z" fill="#1E1E1E"/>
<path d="M8.36072 26.979C9.68001 26.979 10.7495 25.9724 10.7495 24.7307C10.7495 23.489 9.68001 22.4824 8.36072 22.4824C7.04142 22.4824 5.97192 23.489 5.97192 24.7307C5.97192 25.9724 7.04142 26.979 8.36072 26.979Z" fill="#1E1E1E"/>
<path d="M20.3047 26.979C21.624 26.979 22.6935 25.9724 22.6935 24.7307C22.6935 23.489 21.624 22.4824 20.3047 22.4824C18.9855 22.4824 17.916 23.489 17.916 24.7307C17.916 25.9724 18.9855 26.979 20.3047 26.979Z" fill="#1E1E1E"/>
</svg>
