<svg xmlns="http://www.w3.org/2000/svg" width="28" height="28" viewBox="0 0 28 28" fill="none">
  <g clip-path="url(#clip0_713_6228)">
    <circle cx="14" cy="14" r="14" fill="#F8F8FF"/>
    <path fill-rule="evenodd" clip-rule="evenodd" d="M7.07107 21.0711C6.77066 20.7707 6.77066 20.2836 7.07107 19.9832L20.1253 6.92893C20.4257 6.62853 20.9128 6.62853 21.2132 6.92893C21.5136 7.22934 21.5136 7.71639 21.2132 8.01679L8.15892 21.0711C7.85852 21.3715 7.37147 21.3715 7.07107 21.0711Z" fill="#1E1E1E"/>
    <path fill-rule="evenodd" clip-rule="evenodd" d="M21.2132 21.0711C20.9128 21.3715 20.4257 21.3715 20.1253 21.0711L7.07107 8.01679C6.77066 7.71639 6.77066 7.22934 7.07107 6.92893C7.37147 6.62853 7.85852 6.62853 8.15892 6.92893L21.2132 19.9832C21.5136 20.2836 21.5136 20.7707 21.2132 21.0711Z" fill="#1E1E1E"/>
  </g>
  <defs>
    <clipPath id="clip0_713_6228">
      <rect width="28" height="28" fill="white"/>
    </clipPath>
  </defs>
</svg>