<svg width="20" height="21" viewBox="0 0 20 21" fill="none" xmlns="http://www.w3.org/2000/svg">
<g id="ic:cross-20" clip-path="url(#clip0_923_3288)">
<g id="Vector">
<path fill-rule="evenodd" clip-rule="evenodd" d="M3.07107 17.5711C2.77066 17.2707 2.77066 16.7836 3.07107 16.4832L16.1253 3.42893C16.4257 3.12853 16.9128 3.12853 17.2132 3.42893C17.5136 3.72934 17.5136 4.21639 17.2132 4.51679L4.15892 17.5711C3.85852 17.8715 3.37147 17.8715 3.07107 17.5711Z" fill="#680BE0"/>
<path fill-rule="evenodd" clip-rule="evenodd" d="M17.2132 17.5711C16.9128 17.8715 16.4257 17.8715 16.1253 17.5711L3.07107 4.51679C2.77066 4.21639 2.77066 3.72934 3.07107 3.42893C3.37147 3.12853 3.85852 3.12853 4.15892 3.42893L17.2132 16.4832C17.5136 16.7836 17.5136 17.2707 17.2132 17.5711Z" fill="#680BE0"/>
</g>
</g>
<defs>
<clipPath id="clip0_923_3288">
<rect width="20" height="20" fill="white" transform="translate(0 0.5)"/>
</clipPath>
</defs>
</svg>
