<svg width="18" height="18" viewBox="0 0 18 18" fill="none" xmlns="http://www.w3.org/2000/svg">
<g id="ic:cross-18" clip-path="url(#clip0_2438_11251)">
<g id="Vector">
<path fill-rule="evenodd" clip-rule="evenodd" d="M3.65685 14.6569C3.41653 14.4165 3.41653 14.0269 3.65685 13.7866L14.1003 3.34315C14.3406 3.10282 14.7302 3.10282 14.9706 3.34315C15.2109 3.58347 15.2109 3.97311 14.9706 4.21343L4.52714 14.6569C4.28682 14.8972 3.89718 14.8972 3.65685 14.6569Z" fill="#737373"/>
<path fill-rule="evenodd" clip-rule="evenodd" d="M14.9706 14.6569C14.7302 14.8972 14.3406 14.8972 14.1003 14.6569L3.65685 4.21343C3.41653 3.97311 3.41653 3.58347 3.65685 3.34315C3.89718 3.10282 4.28682 3.10282 4.52714 3.34315L14.9706 13.7866C15.2109 14.0269 15.2109 14.4165 14.9706 14.6569Z" fill="#737373"/>
</g>
</g>
<defs>
<clipPath id="clip0_2438_11251">
<rect width="18" height="18" fill="white"/>
</clipPath>
</defs>
</svg>
