<svg width="28" height="28" viewBox="0 0 28 28" fill="none" xmlns="http://www.w3.org/2000/svg">
<rect width="28" height="28" fill="#363636"/>
<g id="CHANGED PAGES">
<g id="&#208;&#154;&#208;&#176;&#209;&#128;&#209;&#130;&#208;&#190;&#209;&#135;&#208;&#186;&#208;&#176; &#209;&#130;&#208;&#190;&#208;&#178;&#208;&#176;&#209;&#128;&#208;&#176;">
<path d="M-2708 -1062C-2708 -1063.1 -2707.1 -1064 -2706 -1064H170C171.104 -1064 172 -1063.1 172 -1062V11592C172 11593.1 171.104 11594 170 11594H-2706C-2707.1 11594 -2708 11593.1 -2708 11592V-1062Z" fill="#5F5F5F"/>
<g id="Full_screen-view_start" clip-path="url(#clip0_21_2)">
<rect width="1280" height="832" transform="translate(-1240 -12)" fill="#FDFDFD"/>
<g id="Frame 247" clip-path="url(#clip1_21_2)">
<rect width="1280" height="832" transform="translate(-1240 -12)" fill="white"/>
<g id="ic:cross-24" clip-path="url(#clip2_21_2)">
<circle id="Ellipse 27" cx="14" cy="14" r="14" fill="#F8F8FF"/>
<g id="Vector">
<path fill-rule="evenodd" clip-rule="evenodd" d="M7.07107 21.0711C6.77066 20.7707 6.77066 20.2836 7.07107 19.9832L20.1253 6.92893C20.4257 6.62853 20.9128 6.62853 21.2132 6.92893C21.5136 7.22934 21.5136 7.71639 21.2132 8.01679L8.15892 21.0711C7.85852 21.3715 7.37147 21.3715 7.07107 21.0711Z" fill="#1E1E1E"/>
<path fill-rule="evenodd" clip-rule="evenodd" d="M21.2132 21.0711C20.9128 21.3715 20.4257 21.3715 20.1253 21.0711L7.07107 8.01679C6.77066 7.71639 6.77066 7.22934 7.07107 6.92893C7.37147 6.62853 7.85852 6.62853 8.15892 6.92893L21.2132 19.9832C21.5136 20.2836 21.5136 20.7707 21.2132 21.0711Z" fill="#1E1E1E"/>
</g>
</g>
</g>
</g>
<path d="M-2706 -1063H170V-1065H-2706V-1063ZM171 -1062V11592H173V-1062H171ZM170 11593H-2706V11595H170V11593ZM-2707 11592V-1062H-2709V11592H-2707ZM-2706 11593C-2706.55 11593 -2707 11592.6 -2707 11592H-2709C-2709 11593.7 -2707.66 11595 -2706 11595V11593ZM171 11592C171 11592.6 170.552 11593 170 11593V11595C171.657 11595 173 11593.7 173 11592H171ZM170 -1063C170.552 -1063 171 -1062.55 171 -1062H173C173 -1063.66 171.657 -1065 170 -1065V-1063ZM-2706 -1065C-2707.66 -1065 -2709 -1063.66 -2709 -1062H-2707C-2707 -1062.55 -2706.55 -1063 -2706 -1063V-1065Z" fill="white" fill-opacity="0.1"/>
</g>
<path d="M-8398 -1170H25911V-1182H-8398V-1170ZM25907 -1174V11692H25919V-1174H25907ZM25911 11688H-8398V11700H25911V11688ZM-8394 11692V-1174H-8406V11692H-8394ZM-8398 11688C-8395.79 11688 -8394 11689.8 -8394 11692H-8406C-8406 11696.4 -8402.42 11700 -8398 11700V11688ZM25907 11692C25907 11689.8 25908.8 11688 25911 11688V11700C25915.4 11700 25919 11696.4 25919 11692H25907ZM25911 -1170C25908.8 -1170 25907 -1171.79 25907 -1174H25919C25919 -1178.42 25915.4 -1182 25911 -1182V-1170ZM-8398 -1182C-8402.42 -1182 -8406 -1178.42 -8406 -1174H-8394C-8394 -1171.79 -8395.79 -1170 -8398 -1170V-1182Z" fill="#00B78B"/>
</g>
<defs>
<clipPath id="clip0_21_2">
<rect width="1280" height="832" fill="white" transform="translate(-1240 -12)"/>
</clipPath>
<clipPath id="clip1_21_2">
<rect width="1280" height="832" fill="white" transform="translate(-1240 -12)"/>
</clipPath>
<clipPath id="clip2_21_2">
<rect width="28" height="28" fill="white"/>
</clipPath>
</defs>
</svg>
