<svg width="20" height="21" viewBox="0 0 20 21" fill="none" xmlns="http://www.w3.org/2000/svg">
<g id="ic:heart-20">
<path id="Vector" d="M14.5815 1.33325C13.6435 1.34792 12.7259 1.61114 11.9215 2.09634C11.1171 2.58154 10.4543 3.27153 10 4.09664C9.54572 3.27153 8.8829 2.58154 8.07847 2.09634C7.27405 1.61114 6.35651 1.34792 5.41852 1.33325C3.92324 1.39856 2.51444 2.05613 1.49991 3.16231C0.485388 4.26848 -0.0524034 5.73334 0.00403263 7.23685C0.00403263 12.9102 9.13035 19.4627 9.51853 19.7408C9.80677 19.9458 10.1932 19.9458 10.4815 19.7408C10.8696 19.4644 19.996 12.9102 19.996 7.23685C20.0524 5.73334 19.5146 4.26848 18.5001 3.16231C17.4856 2.05613 16.0768 1.39856 14.5815 1.33325ZM10.5936 17.5642C10.2444 17.8398 9.75564 17.8398 9.40637 17.5642C6.54831 15.3093 1.67003 10.7312 1.67003 7.23685C1.61308 6.17732 1.97521 5.13813 2.67742 4.34593C3.37964 3.55373 4.36497 3.0728 5.41852 3.00803C6.47206 3.0728 7.45739 3.55373 8.15961 4.34593C8.67648 4.92903 9.0091 5.64595 9.12596 6.40631C9.19472 6.85369 9.54736 7.23685 10 7.23685C10.4526 7.23685 10.8053 6.85369 10.874 6.40631C10.9909 5.64595 11.3235 4.92903 11.8404 4.34593C12.5426 3.55373 13.5279 3.0728 14.5815 3.00803C15.635 3.0728 16.6204 3.55373 17.3226 4.34593C18.0248 5.13813 18.3869 6.17732 18.33 7.23685C18.33 10.7327 13.4517 15.3095 10.5936 17.5642Z" fill="#726EFA"/>
</g>
</svg>
