<svg width="28" height="28" viewBox="0 0 28 28" fill="none" xmlns="http://www.w3.org/2000/svg">
<path d="M20.4141 1.16699C19.1009 1.18753 17.8163 1.55604 16.6901 2.23532C15.5639 2.9146 14.636 3.88058 14 5.03573C13.364 3.88058 12.4361 2.9146 11.3099 2.23532C10.1837 1.55604 8.89912 1.18753 7.58592 1.16699C5.49253 1.25842 3.52022 2.17902 2.09988 3.72767C0.679543 5.27631 -0.0733647 7.32711 0.00564568 9.43203C0.00564568 17.3747 12.7825 26.5483 13.3259 26.9375L13.4204 27.0047C13.7674 27.2515 14.2326 27.2515 14.5796 27.0047L14.6741 26.9375C15.2175 26.5506 27.9944 17.3747 27.9944 9.43203C28.0734 7.32711 27.3205 5.27631 25.9001 3.72767C24.4798 2.17902 22.5075 1.25842 20.4141 1.16699ZM14.5935 24.0766C14.2425 24.3499 13.7575 24.3499 13.4065 24.0766C9.44473 20.9915 2.33804 14.4224 2.33804 9.43203C2.25832 7.94868 2.76529 6.49382 3.74839 5.38474C4.73149 4.27567 6.11096 3.60237 7.58592 3.51168C9.06089 3.60237 10.4403 4.27567 11.4234 5.38474C12.1719 6.22912 12.6444 7.27393 12.7921 8.37915C12.8681 8.94747 13.3156 9.43203 13.889 9.43203H14.111C14.6844 9.43203 15.1319 8.94747 15.2079 8.37915C15.3556 7.27393 15.8281 6.22912 16.5765 5.38474C17.5597 4.27567 18.9391 3.60237 20.4141 3.51168C21.889 3.60237 23.2685 4.27567 24.2516 5.38474C25.2347 6.49382 25.7417 7.94868 25.662 9.43203C25.662 14.4246 18.5553 20.9917 14.5935 24.0766Z" fill="#1E1E1E"/>
</svg>
