<svg width="24" height="24" viewBox="0 0 24 24" fill="none" xmlns="http://www.w3.org/2000/svg">
<g clip-path="url(#clip0_97_1616)">
<path fill-rule="evenodd" clip-rule="evenodd" d="M14.3058 1.91571C15.2711 1.33347 16.3722 1.0176 17.4978 1C19.2921 1.07837 20.9827 1.86746 22.2001 3.19487C23.4175 4.52227 24.0629 6.2801 23.9952 8.08432C23.9952 14.8923 13.0436 22.7574 12.5778 23.089C12.2319 23.3351 11.7681 23.3351 11.4222 23.089C10.9564 22.7554 0.00483915 14.8923 0.00483915 8.08432C-0.0628841 6.2801 0.582466 4.52227 1.7999 3.19487C3.01733 1.86746 4.70788 1.07837 6.50222 1C7.62781 1.0176 8.72886 1.33347 9.69417 1.91571C10.6595 2.49795 11.4549 3.32594 12 4.31606C12.5451 3.32594 13.3405 2.49795 14.3058 1.91571Z" fill="#EA248A"/>
</g>
<defs>
<clipPath id="clip0_97_1616">
<rect width="24" height="24" fill="white"/>
</clipPath>
</defs>
</svg>
