<svg width="20" height="20" viewBox="0 0 20 20" fill="none" xmlns="http://www.w3.org/2000/svg">
<g clip-path="url(#clip0_984_7085)">
<path d="M14.5815 0.833008C13.6435 0.847675 12.7259 1.1109 11.9215 1.5961C11.1171 2.0813 10.4543 2.77129 10 3.59639C9.54572 2.77129 8.8829 2.0813 8.07847 1.5961C7.27405 1.1109 6.35651 0.847675 5.41852 0.833008C3.92324 0.898316 2.51444 1.55589 1.49991 2.66206C0.485388 3.76824 -0.0524034 5.23309 0.00403263 6.73661C0.00403263 12.4099 9.13035 18.9625 9.51853 19.2405C9.80677 19.4456 10.1932 19.4456 10.4815 19.2405C10.8696 18.9642 19.996 12.4099 19.996 6.73661C20.0524 5.23309 19.5146 3.76824 18.5001 2.66206C17.4856 1.55589 16.0768 0.898316 14.5815 0.833008ZM10.5936 17.064C10.2444 17.3395 9.75564 17.3395 9.40637 17.064C6.54831 14.809 1.67003 10.2309 1.67003 6.73661C1.61308 5.67707 1.97521 4.63788 2.67742 3.84569C3.37964 3.05349 4.36497 2.57256 5.41852 2.50779C6.47206 2.57256 7.45739 3.05349 8.15961 3.84569C8.67648 4.42879 9.0091 5.14571 9.12596 5.90606C9.19472 6.35345 9.54736 6.73661 10 6.73661C10.4526 6.73661 10.8053 6.35345 10.874 5.90606C10.9909 5.14571 11.3235 4.42879 11.8404 3.84569C12.5426 3.05349 13.5279 2.57256 14.5815 2.50779C15.635 2.57256 16.6204 3.05349 17.3226 3.84569C18.0248 4.63788 18.3869 5.67707 18.33 6.73661C18.33 10.2325 13.4517 14.8092 10.5936 17.064Z" fill="#726EFA"/>
</g>
<defs>
<clipPath id="clip0_984_7085">
<rect width="20" height="20" fill="white"/>
</clipPath>
</defs>
</svg>
