<svg width="20" height="20" viewBox="0 0 20 20" fill="none" xmlns="http://www.w3.org/2000/svg">
<g clip-path="url(#clip0_257_13434)">
<path d="M14.5815 0.833496C13.6435 0.848163 12.7259 1.11139 11.9215 1.59659C11.1171 2.08178 10.4543 2.77178 10 3.59688C9.54572 2.77178 8.8829 2.08178 8.07847 1.59659C7.27405 1.11139 6.35651 0.848163 5.41852 0.833496C3.92324 0.898805 2.51444 1.55638 1.49991 2.66255C0.485388 3.76872 -0.0524034 5.23358 0.00403263 6.7371C0.00403263 12.4104 9.13035 18.963 9.51853 19.241C9.80677 19.446 10.1932 19.446 10.4815 19.241C10.8696 18.9647 19.996 12.4104 19.996 6.7371C20.0524 5.23358 19.5146 3.76872 18.5001 2.66255C17.4856 1.55638 16.0768 0.898805 14.5815 0.833496ZM10.5936 17.0645C10.2444 17.34 9.75564 17.34 9.40637 17.0644C6.54831 14.8095 1.67003 10.2314 1.67003 6.7371C1.61308 5.67756 1.97521 4.63837 2.67742 3.84617C3.37964 3.05398 4.36497 2.57305 5.41852 2.50828C6.47206 2.57305 7.45739 3.05398 8.15961 3.84617C8.67648 4.42928 9.0091 5.1462 9.12596 5.90655C9.19472 6.35394 9.54736 6.7371 10 6.7371C10.4526 6.7371 10.8053 6.35394 10.874 5.90655C10.9909 5.1462 11.3235 4.42928 11.8404 3.84617C12.5426 3.05398 13.5279 2.57305 14.5815 2.50828C15.635 2.57305 16.6204 3.05398 17.3226 3.84617C18.0248 4.63837 18.3869 5.67756 18.33 6.7371C18.33 10.233 13.4517 14.8097 10.5936 17.0645Z" fill="url(#paint0_linear_257_13434)"/>
</g>
<defs>
<linearGradient id="paint0_linear_257_13434" x1="20" y1="10.2494" x2="2.44798e-08" y2="10.2494" gradientUnits="userSpaceOnUse">
<stop stop-color="#7916E1"/>
<stop offset="0.479167" stop-color="#680BE0"/>
<stop offset="1" stop-color="#5500DE"/>
</linearGradient>
<clipPath id="clip0_257_13434">
<rect width="20" height="20" fill="white"/>
</clipPath>
</defs>
</svg>
