<svg width="24" height="24" viewBox="0 0 24 24" fill="none" xmlns="http://www.w3.org/2000/svg">
<path d="M19 10.7915H5C4.44772 10.7915 4 11.1926 4 11.6873C4 12.1821 4.44772 12.5831 5 12.5831H19C19.5523 12.5831 20 12.1821 20 11.6873C20 11.1926 19.5523 10.7915 19 10.7915Z" fill="#FDFDFD"/>
<path d="M5 6.79163H19C19.5523 6.79163 20 6.39056 20 5.89582C20 5.40107 19.5523 5 19 5H5C4.44772 5 4 5.40107 4 5.89582C4 6.39056 4.44772 6.79163 5 6.79163Z" fill="#FDFDFD"/>
<path d="M19 16.583H5C4.44772 16.583 4 16.9841 4 17.4788C4 17.9736 4.44772 18.3746 5 18.3746H19C19.5523 18.3746 20 17.9736 20 17.4788C20 16.9841 19.5523 16.583 19 16.583Z" fill="#FDFDFD"/>
</svg>
