<svg width="28" height="28" viewBox="0 0 28 28" fill="none" xmlns="http://www.w3.org/2000/svg">
<g clip-path="url(#clip0_887_4237)">
<path d="M14 0.999756C6.8201 0.999756 1 6.81986 1 13.9998C1 21.1797 6.8201 26.9998 14 26.9998C21.1799 26.9998 27 21.1797 27 13.9998C27 6.81986 21.1799 0.999756 14 0.999756Z" stroke="#352DF2" stroke-width="2" stroke-linecap="round" stroke-linejoin="round"/>
<path d="M3.95215 22.2493C3.95215 22.2493 6.84985 18.5495 13.9998 18.5495C21.1498 18.5495 24.0488 22.2493 24.0488 22.2493M13.9998 13.9995C15.0342 13.9995 16.0262 13.5886 16.7576 12.8572C17.489 12.1258 17.8998 11.1338 17.8998 10.0995C17.8998 9.06512 17.489 8.07314 16.7576 7.34175C16.0262 6.61035 15.0342 6.19946 13.9998 6.19946C12.9655 6.19946 11.9735 6.61035 11.2421 7.34175C10.5107 8.07314 10.0998 9.06512 10.0998 10.0995C10.0998 11.1338 10.5107 12.1258 11.2421 12.8572C11.9735 13.5886 12.9655 13.9995 13.9998 13.9995Z" stroke="#352DF2" stroke-width="2" stroke-linecap="round" stroke-linejoin="round"/>
</g>
<defs>
<clipPath id="clip0_887_4237">
<rect width="28" height="28" fill="white"/>
</clipPath>
</defs>
</svg>
