<svg width="20" height="20" viewBox="0 0 20 20" fill="none" xmlns="http://www.w3.org/2000/svg">
<g clip-path="url(#clip0_308_3461)">
<path d="M7.66653 4.72814C8.62104 2.79407 11.379 2.79407 12.3335 4.72814C12.7125 5.49615 13.4452 6.02848 14.2928 6.15164C16.4271 6.46178 17.2794 9.08471 15.7349 10.5902C15.1216 11.188 14.8418 12.0493 14.9865 12.8934C15.3511 15.0192 13.1199 16.6402 11.2109 15.6366C10.4528 15.2381 9.54718 15.2381 8.7891 15.6366C6.88006 16.6402 4.64886 15.0192 5.01346 12.8934C5.15824 12.0493 4.87837 11.188 4.26508 10.5902C2.72063 9.08471 3.57288 6.46178 5.70724 6.15164C6.5548 6.02848 7.28749 5.49615 7.66653 4.72814Z" fill="#F1C644"/>
</g>
<defs>
<clipPath id="clip0_308_3461">
<rect width="20" height="20" fill="white"/>
</clipPath>
</defs>
</svg>
