<svg width="25" height="24" viewBox="0 0 25 24" fill="none" xmlns="http://www.w3.org/2000/svg">
<path d="M19.9502 19.5137C20.1981 19.2496 20.1981 18.8383 19.9502 18.5742L16.8033 15.2214C16.4681 14.8642 16.4478 14.3202 16.6976 13.8988C17.458 12.6162 17.817 11.1004 17.7093 9.57247C17.5811 7.75476 16.8021 6.05907 15.5333 4.83616C14.2646 3.61324 12.6033 2.95666 10.8929 3.00222C9.18255 3.04778 7.55407 3.792 6.34429 5.08095C5.13451 6.36989 4.43599 8.10493 4.39323 9.9272C4.35047 11.7495 4.96672 13.5195 6.11453 14.8713C7.26234 16.223 8.85388 17.053 10.56 17.1896C11.9508 17.3009 13.331 16.9445 14.5112 16.1838C14.9633 15.8924 15.572 15.9155 15.9401 16.3076L18.9492 19.5137C19.2204 19.8026 19.6791 19.8026 19.9502 19.5137ZM11.0702 15.7909C10.0168 15.7909 8.98704 15.4581 8.11115 14.8345C7.23525 14.211 6.55258 13.3247 6.14945 12.2878C5.74632 11.2508 5.64084 10.1098 5.84635 9.00905C6.05187 7.90826 6.55914 6.89712 7.30403 6.10349C8.04891 5.30986 8.99796 4.76939 10.0311 4.55043C11.0643 4.33147 12.1353 4.44385 13.1085 4.87336C14.0817 5.30287 14.9136 6.03021 15.4988 6.96342C16.0841 7.89663 16.3965 8.99378 16.3965 10.1161C16.3949 11.6207 15.8332 13.0631 14.8347 14.1269C13.8362 15.1908 12.4824 15.7892 11.0702 15.7909Z" fill="#FDFDFD"/>
</svg>
