<svg width="24" height="24" viewBox="0 0 24 24" fill="none" xmlns="http://www.w3.org/2000/svg">
<path d="M19.5591 19.5137C19.807 19.2496 19.807 18.8383 19.5591 18.5742L16.4122 15.2214C16.077 14.8642 16.0567 14.3202 16.3065 13.8988C17.0669 12.6162 17.4259 11.1004 17.3181 9.57247C17.19 7.75476 16.4109 6.05907 15.1422 4.83616C13.8735 3.61324 12.2121 2.95666 10.5018 3.00222C8.79141 3.04778 7.16292 3.792 5.95314 5.08095C4.74336 6.36989 4.04485 8.10493 4.00209 9.9272C3.95932 11.7495 4.57558 13.5195 5.72339 14.8713C6.8712 16.223 8.46274 17.053 10.1688 17.1896C11.5597 17.3009 12.9399 16.9445 14.1201 16.1838C14.5722 15.8924 15.1808 15.9155 15.5489 16.3076L18.5581 19.5137C18.8292 19.8026 19.2879 19.8026 19.5591 19.5137ZM10.6791 15.7909C9.62567 15.7909 8.5959 15.4581 7.72 14.8345C6.84411 14.211 6.16143 13.3247 5.7583 12.2878C5.35517 11.2508 5.2497 10.1098 5.45521 9.00905C5.66072 7.90826 6.168 6.89712 6.91288 6.10349C7.65777 5.30986 8.60681 4.76939 9.64 4.55043C10.6732 4.33147 11.7441 4.44385 12.7174 4.87336C13.6906 5.30287 14.5224 6.03021 15.1077 6.96342C15.6929 7.89663 16.0053 8.99378 16.0053 10.1161C16.0037 11.6207 15.4421 13.0631 14.4436 14.1269C13.445 15.1908 12.0912 15.7892 10.6791 15.7909Z" fill="#FDFDFD"/>
</svg>
