<svg width="24" height="24" viewBox="0 0 24 24" fill="none" xmlns="http://www.w3.org/2000/svg">
<g id="ic:search-24">
<g id="01 align center">
<path id="Vector" d="M22.0798 22.3118C22.3998 21.971 22.3998 21.4402 22.0798 21.0993L17.8497 16.5924C17.5145 16.2352 17.4925 15.6907 17.7535 15.2761C18.8228 13.5775 19.3328 11.5382 19.1878 9.48213C19.0223 7.13627 18.017 4.9479 16.3796 3.36966C14.7422 1.79142 12.5982 0.944067 10.3909 1.00287C8.18357 1.06167 6.08192 2.02212 4.52063 3.68557C2.95935 5.34902 2.05788 7.58819 2.00269 9.93992C1.9475 12.2917 2.74281 14.576 4.22412 16.3205C5.70543 18.065 7.7594 19.1362 9.96119 19.3124C11.8484 19.4635 13.7205 18.9472 15.2932 17.8589C15.7355 17.5529 16.3448 17.5779 16.7129 17.9701L20.788 22.3118C21.1379 22.6846 21.7299 22.6846 22.0798 22.3118ZM10.6197 17.5073C9.26022 17.5073 7.93125 17.0778 6.80086 16.2731C5.67047 15.4684 4.78944 14.3246 4.26918 12.9864C3.74892 11.6482 3.6128 10.1756 3.87803 8.755C4.14325 7.33437 4.79792 6.02944 5.75923 5.00522C6.72055 3.981 7.94534 3.28349 9.27872 3.00091C10.6121 2.71833 11.9942 2.86336 13.2502 3.41767C14.5062 3.97197 15.5798 4.91065 16.3351 6.115C17.0904 7.31936 17.4935 8.73529 17.4935 10.1838C17.4915 12.1254 16.7666 13.9869 15.478 15.3599C14.1893 16.7329 12.4421 17.5051 10.6197 17.5073Z" fill="#352DF2"/>
</g>
</g>
</svg>
