<svg width="29" height="28" viewBox="0 0 29 28" fill="none" xmlns="http://www.w3.org/2000/svg">
<g id="iconoir:pc-check">
<g id="Group">
<path id="Vector" d="M8.66797 25.668H20.3346" stroke="#FF2455" stroke-width="1.5" stroke-linecap="round" stroke-linejoin="round"/>
<path id="Vector_2" d="M2.83398 19.834V4.66732C2.83398 4.04848 3.07982 3.45499 3.5174 3.0174C3.95499 2.57982 4.54848 2.33398 5.16732 2.33398H23.834C24.4528 2.33398 25.0463 2.57982 25.4839 3.0174C25.9215 3.45499 26.1673 4.04848 26.1673 4.66732V19.834C26.1673 20.4528 25.9215 21.0463 25.4839 21.4839C25.0463 21.9215 24.4528 22.1673 23.834 22.1673H5.16732C4.54848 22.1673 3.95499 21.9215 3.5174 21.4839C3.07982 21.0463 2.83398 20.4528 2.83398 19.834Z" stroke="#FF2455" stroke-width="1.5"/>
</g>
<path id="Line 16" d="M12.5 9L12.5 15" stroke="#FF2455" stroke-width="1.5" stroke-linecap="round"/>
<path id="Line 17" d="M16.5 9L16.5 15" stroke="#FF2455" stroke-width="1.5" stroke-linecap="round"/>
</g>
</svg>
