<svg width="24" height="23" viewBox="0 0 24 23" fill="none" xmlns="http://www.w3.org/2000/svg">
<path d="M17.4978 0C16.3722 0.0176002 15.2711 0.333469 14.3058 0.915707C13.3405 1.49795 12.5451 2.32594 12 3.31606C11.4549 2.32594 10.6595 1.49795 9.69417 0.915707C8.72886 0.333469 7.62781 0.0176002 6.50222 0C4.70788 0.0783704 3.01733 0.867456 1.7999 2.19487C0.582466 3.52227 -0.0628841 5.2801 0.00483915 7.08432C0.00483915 13.8923 10.9564 21.7554 11.4222 22.089C11.7681 22.3351 12.2319 22.3351 12.5778 22.089C13.0436 21.7574 23.9952 13.8923 23.9952 7.08432C24.0629 5.2801 23.4175 3.52227 22.2001 2.19487C20.9827 0.867456 19.2921 0.0783704 17.4978 0ZM12.5944 19.5699C12.2441 19.8442 11.7559 19.8442 11.4056 19.5699C7.99412 16.8984 2.00403 11.326 2.00403 7.08432C1.9357 5.81288 2.37025 4.56585 3.21291 3.61521C4.05557 2.66458 5.23796 2.08746 6.50222 2.00974C7.76647 2.08746 8.94887 2.66458 9.79153 3.61521C10.4118 4.31494 10.8109 5.17524 10.9512 6.08767C11.0337 6.62453 11.4568 7.08432 12 7.08432C12.5432 7.08432 12.9663 6.62453 13.0488 6.08767C13.1891 5.17524 13.5882 4.31494 14.2085 3.61521C15.0511 2.66458 16.2335 2.08746 17.4978 2.00974C18.762 2.08746 19.9444 2.66458 20.7871 3.61521C21.6297 4.56585 22.0643 5.81288 21.996 7.08432C21.996 11.3279 16.0059 16.8986 12.5944 19.5699Z" fill="#1E1E1E"/>
</svg>
