<svg width="24" height="24" viewBox="0 0 24 24" fill="none" xmlns="http://www.w3.org/2000/svg">
<g id="ant-design:link-outlined">
<path id="Vector" d="M13.4523 15.5945C13.4171 15.5596 13.3695 15.5401 13.3199 15.5401C13.2703 15.5401 13.2227 15.5596 13.1875 15.5945L10.4641 18.318C9.20313 19.5789 7.075 19.7125 5.68281 18.318C4.28828 16.9234 4.42188 14.7977 5.68281 13.5367L8.40625 10.8133C8.47891 10.7406 8.47891 10.6211 8.40625 10.5484L7.47344 9.61563C7.4382 9.58073 7.39061 9.56116 7.34102 9.56116C7.29142 9.56116 7.24383 9.58073 7.20859 9.61563L4.48516 12.3391C2.50234 14.3219 2.50234 17.5305 4.48516 19.5109C6.46797 21.4914 9.67656 21.4938 11.657 19.5109L14.3805 16.7875C14.4531 16.7148 14.4531 16.5953 14.3805 16.5227L13.4523 15.5945ZM19.5133 4.48516C17.5305 2.50234 14.3219 2.50234 12.3414 4.48516L9.61563 7.20859C9.58073 7.24383 9.56116 7.29142 9.56116 7.34102C9.56116 7.39061 9.58073 7.4382 9.61563 7.47344L10.5461 8.40391C10.6188 8.47656 10.7383 8.47656 10.8109 8.40391L13.5344 5.68047C14.7953 4.41953 16.9234 4.28594 18.3156 5.68047C19.7102 7.075 19.5766 9.20078 18.3156 10.4617L15.5922 13.1852C15.5573 13.2204 15.5377 13.268 15.5377 13.3176C15.5377 13.3672 15.5573 13.4148 15.5922 13.45L16.525 14.3828C16.5977 14.4555 16.7172 14.4555 16.7898 14.3828L19.5133 11.6594C21.4937 9.67656 21.4937 6.46797 19.5133 4.48516ZM14.2984 8.725C14.2632 8.69011 14.2156 8.67053 14.166 8.67053C14.1164 8.67053 14.0688 8.69011 14.0336 8.725L8.725 14.0313C8.69011 14.0665 8.67053 14.1141 8.67053 14.1637C8.67053 14.2133 8.69011 14.2609 8.725 14.2961L9.65313 15.2242C9.72578 15.2969 9.84531 15.2969 9.91797 15.2242L15.2242 9.91797C15.2969 9.84531 15.2969 9.72578 15.2242 9.65313L14.2984 8.725Z" fill="#726EFA"/>
</g>
</svg>
