<svg width="24" height="24" viewBox="0 0 24 24" fill="none" xmlns="http://www.w3.org/2000/svg">
<g id="streamline:interface-favorite-star-reward-rating-rate-social-star-media-favorite-like-stars">
<path id="Vector" d="M12.6988 3.4345L14.9056 7.88961C14.9558 8.00269 15.0347 8.10064 15.1346 8.17369C15.2344 8.24675 15.3516 8.29236 15.4746 8.30598L20.3461 9.02768C20.4871 9.04581 20.6201 9.1037 20.7295 9.19458C20.8389 9.28546 20.9201 9.40559 20.9638 9.54094C21.0075 9.67628 21.0117 9.82125 20.9761 9.95892C20.9404 10.0966 20.8663 10.2213 20.7625 10.3184L17.2511 13.802C17.1615 13.8857 17.0942 13.9905 17.0554 14.1069C17.0167 14.2232 17.0076 14.3474 17.029 14.4682L17.8756 19.3674C17.9002 19.5082 17.8847 19.653 17.8309 19.7854C17.7772 19.9178 17.6874 20.0325 17.5717 20.1164C17.456 20.2003 17.3191 20.25 17.1765 20.2599C17.034 20.2698 16.8915 20.2395 16.7653 20.1724L12.3796 17.8546C12.2673 17.7995 12.1439 17.7708 12.0188 17.7708C11.8937 17.7708 11.7702 17.7995 11.6579 17.8546L7.27219 20.1724C7.14602 20.2395 7.00355 20.2698 6.861 20.2599C6.71845 20.25 6.58154 20.2003 6.46585 20.1164C6.35017 20.0325 6.26034 19.9178 6.2066 19.7854C6.15287 19.653 6.13737 19.5082 6.16189 19.3674L7.0085 14.4127C7.02995 14.2919 7.02088 14.1677 6.98209 14.0514C6.94331 13.935 6.87605 13.8302 6.78643 13.7465L3.23345 10.3184C3.12833 10.2186 3.05441 10.0905 3.02063 9.94953C2.98686 9.80858 2.99468 9.66086 3.04315 9.52426C3.09162 9.38767 3.17866 9.26805 3.29372 9.17992C3.40879 9.09178 3.54694 9.0389 3.69145 9.02768L8.56293 8.30598C8.68589 8.29236 8.80314 8.24675 8.90298 8.17369C9.00282 8.10064 9.08177 8.00269 9.13196 7.88961L11.3387 3.4345C11.3988 3.30474 11.4948 3.19489 11.6153 3.1179C11.7358 3.04091 11.8758 3 12.0188 3C12.1618 3 12.3018 3.04091 12.4223 3.1179C12.5428 3.19489 12.6387 3.30474 12.6988 3.4345Z" stroke="#726EFA" stroke-width="1.5" stroke-linecap="round" stroke-linejoin="round"/>
</g>
</svg>
