<svg width="24" height="24" viewBox="0 0 24 24" fill="none" xmlns="http://www.w3.org/2000/svg">
<g id="fluent:delete-20-regular">
<path id="Vector" d="M10.2004 4.80078H13.8004C13.8004 4.32339 13.6107 3.86555 13.2732 3.52799C12.9356 3.19042 12.4778 3.00078 12.0004 3.00078C11.523 3.00078 11.0652 3.19042 10.7276 3.52799C10.39 3.86555 10.2004 4.32339 10.2004 4.80078ZM9.00039 4.80078C9.00039 4.00513 9.31646 3.24207 9.87907 2.67946C10.4417 2.11685 11.2047 1.80078 12.0004 1.80078C12.796 1.80078 13.5591 2.11685 14.1217 2.67946C14.6843 3.24207 15.0004 4.00513 15.0004 4.80078H21.0004C21.1595 4.80078 21.3121 4.864 21.4247 4.97652C21.5372 5.08904 21.6004 5.24165 21.6004 5.40078C21.6004 5.55991 21.5372 5.71252 21.4247 5.82505C21.3121 5.93757 21.1595 6.00078 21.0004 6.00078H19.7356L18.3028 18.4136C18.2015 19.291 17.7812 20.1006 17.1218 20.6883C16.4625 21.2759 15.61 21.6007 14.7268 21.6008H9.27399C8.39074 21.6007 7.53833 21.2759 6.87895 20.6883C6.21958 20.1006 5.79927 19.291 5.69799 18.4136L4.26519 6.00078H3.00039C2.84126 6.00078 2.68865 5.93757 2.57613 5.82505C2.4636 5.71252 2.40039 5.55991 2.40039 5.40078C2.40039 5.24165 2.4636 5.08904 2.57613 4.97652C2.68865 4.864 2.84126 4.80078 3.00039 4.80078H9.00039ZM6.88959 18.2768C6.9573 18.8617 7.23765 19.4012 7.67729 19.7929C8.11694 20.1845 8.68521 20.4009 9.27399 20.4008H14.7268C15.3156 20.4009 15.8838 20.1845 16.3235 19.7929C16.7631 19.4012 17.0435 18.8617 17.1112 18.2768L18.5272 6.00078H5.47359L6.88959 18.2768ZM10.2004 9.00078C10.3595 9.00078 10.5121 9.06399 10.6247 9.17652C10.7372 9.28904 10.8004 9.44165 10.8004 9.60078V16.8008C10.8004 16.9599 10.7372 17.1125 10.6247 17.225C10.5121 17.3376 10.3595 17.4008 10.2004 17.4008C10.0413 17.4008 9.88865 17.3376 9.77613 17.225C9.6636 17.1125 9.60039 16.9599 9.60039 16.8008V9.60078C9.60039 9.44165 9.6636 9.28904 9.77613 9.17652C9.88865 9.06399 10.0413 9.00078 10.2004 9.00078ZM14.4004 9.60078C14.4004 9.44165 14.3372 9.28904 14.2247 9.17652C14.1121 9.06399 13.9595 9.00078 13.8004 9.00078C13.6413 9.00078 13.4886 9.06399 13.3761 9.17652C13.2636 9.28904 13.2004 9.44165 13.2004 9.60078V16.8008C13.2004 16.9599 13.2636 17.1125 13.3761 17.225C13.4886 17.3376 13.6413 17.4008 13.8004 17.4008C13.9595 17.4008 14.1121 17.3376 14.2247 17.225C14.3372 17.1125 14.4004 16.9599 14.4004 16.8008V9.60078Z" fill="#FF2455"/>
</g>
</svg>
