<svg width="24" height="24" viewBox="0 0 24 24" fill="none" xmlns="http://www.w3.org/2000/svg">
<g id="heroicons:receipt-refund">
<path id="Vector" d="M8.25 9.74957H13.125C13.8212 9.74957 14.4889 10.0261 14.9812 10.5184C15.4734 11.0107 15.75 11.6784 15.75 12.3746C15.75 13.0708 15.4734 13.7384 14.9812 14.2307C14.4889 14.723 13.8212 14.9996 13.125 14.9996H12M8.25 9.74957L10.5 7.49957M8.25 9.74957L10.5 11.9996M19.5 4.75657V21.7496L15.75 20.2496L12 21.7496L8.25 20.2496L4.5 21.7496V4.75657C4.5 3.64857 5.306 2.69957 6.407 2.57157C10.1232 2.14021 13.8768 2.14021 17.593 2.57157C18.693 2.69957 19.5 3.64857 19.5 4.75657Z" stroke="#FF2455" stroke-width="1.5" stroke-linecap="round" stroke-linejoin="round"/>
</g>
</svg>
