<svg width="16" height="16" viewBox="0 0 16 16" fill="none" xmlns="http://www.w3.org/2000/svg">
<g clip-path="url(#clip0_1843_13734)">
<path d="M8.66602 4.99967C8.66602 5.17649 8.59578 5.34605 8.47075 5.47108C8.34573 5.5961 8.17616 5.66634 7.99935 5.66634C7.82254 5.66634 7.65297 5.5961 7.52794 5.47108C7.40292 5.34605 7.33268 5.17649 7.33268 4.99967C7.33268 4.82286 7.40292 4.65329 7.52794 4.52827C7.65297 4.40325 7.82254 4.33301 7.99935 4.33301C8.17616 4.33301 8.34573 4.40325 8.47075 4.52827C8.59578 4.65329 8.66602 4.82286 8.66602 4.99967ZM6.66602 7.49967C6.66602 7.36707 6.71869 7.23989 6.81246 7.14612C6.90623 7.05235 7.03341 6.99967 7.16602 6.99967H8.16602C8.29862 6.99967 8.4258 7.05235 8.51957 7.14612C8.61334 7.23989 8.66602 7.36707 8.66602 7.49967V10.333H9.16602C9.29862 10.333 9.4258 10.3857 9.51957 10.4795C9.61334 10.5732 9.66602 10.7004 9.66602 10.833C9.66602 10.9656 9.61334 11.0928 9.51957 11.1866C9.4258 11.2803 9.29862 11.333 9.16602 11.333H7.16602C7.03341 11.333 6.90623 11.2803 6.81246 11.1866C6.71869 11.0928 6.66602 10.9656 6.66602 10.833C6.66602 10.7004 6.71869 10.5732 6.81246 10.4795C6.90623 10.3857 7.03341 10.333 7.16602 10.333H7.66602V7.99967H7.16602C7.03341 7.99967 6.90623 7.947 6.81246 7.85323C6.71869 7.75946 6.66602 7.63228 6.66602 7.49967Z" fill="#FF2455"/>
<path d="M7.99935 0.666992C12.0493 0.666992 15.3327 3.95033 15.3327 8.00033C15.3327 12.0503 12.0493 15.3337 7.99935 15.3337C3.94935 15.3337 0.666016 12.0503 0.666016 8.00033C0.666016 3.95033 3.94935 0.666992 7.99935 0.666992ZM1.66602 8.00033C1.66602 9.68003 2.33328 11.2909 3.52101 12.4787C4.70874 13.6664 6.31964 14.3337 7.99935 14.3337C9.67905 14.3337 11.29 13.6664 12.4777 12.4787C13.6654 11.2909 14.3327 9.68003 14.3327 8.00033C14.3327 6.32062 13.6654 4.70971 12.4777 3.52198C11.29 2.33425 9.67905 1.66699 7.99935 1.66699C6.31964 1.66699 4.70874 2.33425 3.52101 3.52198C2.33328 4.70971 1.66602 6.32062 1.66602 8.00033Z" fill="#FF2455"/>
</g>
<defs>
<clipPath id="clip0_1843_13734">
<rect width="16" height="16" fill="white"/>
</clipPath>
</defs>
</svg>
