<svg width="20" height="20" viewBox="0 0 20 20" fill="none" xmlns="http://www.w3.org/2000/svg">
<path d="M10 17.0837C14.1421 17.0837 17.5 13.6162 17.5 11.2503C17.5 8.88449 14.1421 5.41699 10 5.41699C5.85792 5.41699 2.5 8.88699 2.5 11.2503C2.5 13.6137 5.85792 17.0837 10 17.0837Z" stroke="#726EFA" stroke-width="1.5" stroke-linejoin="round"/>
<path d="M10 13.7505C10.663 13.7505 11.2989 13.4871 11.7678 13.0183C12.2366 12.5494 12.5 11.9135 12.5 11.2505C12.5 10.5874 12.2366 9.95156 11.7678 9.48272C11.2989 9.01388 10.663 8.75049 10 8.75049C9.33696 8.75049 8.70107 9.01388 8.23223 9.48272C7.76339 9.95156 7.5 10.5874 7.5 11.2505C7.5 11.9135 7.76339 12.5494 8.23223 13.0183C8.70107 13.4871 9.33696 13.7505 10 13.7505Z" fill="#352DF2" stroke="#726EFA" stroke-width="1.5" stroke-linejoin="round"/>
<path d="M5.52661 4.69449L6.60744 6.20283M14.8437 4.87949L13.7624 6.38783M10.0037 2.91699V5.41699" stroke="#726EFA" stroke-width="1.5" stroke-linecap="round"/>
</svg>
