<svg width="33" height="32" viewBox="0 0 33 32" fill="none" xmlns="http://www.w3.org/2000/svg">
<g id="arcticons:qr">
<path id="Vector" d="M9.68699 3.66602H5.16699C4.61471 3.66602 4.16699 4.11373 4.16699 4.66602V9.18602M28.8337 9.18602V4.66601C28.8337 4.11373 28.3859 3.66602 27.8337 3.66602H23.3137M23.3137 28.3327H27.8337C28.3859 28.3327 28.8337 27.885 28.8337 27.3327V22.8127M24.1003 23.566C23.5632 24.2458 22.8143 24.7236 21.9756 24.9256C21.8517 24.9554 21.7224 24.9548 21.5988 24.924C20.7698 24.7171 20.0309 24.2403 19.5003 23.566C18.5843 22.5103 18.0968 21.1499 18.1337 19.7527V18.606C18.1337 18.0537 18.5814 17.606 19.1337 17.606H24.467C25.0193 17.606 25.467 18.0537 25.467 18.606V19.7527C25.5052 21.1501 25.0175 22.511 24.1003 23.566ZM21.2537 12.246H22.3203C22.8726 12.246 23.3203 11.7983 23.3203 11.246V10.1793C23.3203 9.62706 22.8726 9.17935 22.3203 9.17935H21.2537C20.7014 9.17935 20.2537 9.62706 20.2537 10.1793V11.246C20.2537 11.7983 20.7014 12.246 21.2537 12.246ZM25.4403 8.03268V13.366C25.4403 13.9183 24.9926 14.366 24.4403 14.366H19.107C18.5547 14.366 18.107 13.9183 18.107 13.366V8.03268C18.107 7.4804 18.5547 7.03268 19.107 7.03268H24.4403C24.9926 7.03268 25.4403 7.4804 25.4403 8.03268ZM12.747 11.246V10.1793C12.747 9.62706 12.2993 9.17935 11.747 9.17935H10.6803C10.128 9.17935 9.68033 9.62706 9.68033 10.1793V11.246C9.68033 11.7983 10.128 12.246 10.6803 12.246H11.747C12.2993 12.246 12.747 11.7983 12.747 11.246ZM14.867 8.03268V13.366C14.867 13.9183 14.4193 14.366 13.867 14.366H8.53366C7.98137 14.366 7.53366 13.9183 7.53366 13.366V8.03268C7.53366 7.4804 7.98137 7.03268 8.53366 7.03268H13.867C14.4193 7.03268 14.867 7.4804 14.867 8.03268ZM10.6803 22.8193H11.747C12.2993 22.8193 12.747 22.3716 12.747 21.8193V20.7527C12.747 20.2004 12.2993 19.7527 11.747 19.7527H10.6803C10.128 19.7527 9.68033 20.2004 9.68033 20.7527V21.8193C9.68033 22.3716 10.128 22.8193 10.6803 22.8193ZM13.867 24.9393H8.53366C7.98137 24.9393 7.53366 24.4916 7.53366 23.9393V18.606C7.53366 18.0537 7.98137 17.606 8.53366 17.606H13.867C14.4193 17.606 14.867 18.0537 14.867 18.606V23.9393C14.867 24.4916 14.4193 24.9393 13.867 24.9393Z" stroke="#B2B0FF" stroke-width="1.5" stroke-linecap="round" stroke-linejoin="round"/>
<path id="Vector_2" d="M4.16699 22.8139V28.3339H9.68699M21.787 22.8206C21.5251 22.6587 21.2834 22.4662 21.067 22.2472C20.492 21.548 20.2016 20.6577 20.2537 19.7539H23.3203C23.3705 20.6586 23.0777 21.5489 22.5003 22.2472C22.2839 22.4662 22.0422 22.6587 21.7803 22.8206H21.787Z" stroke="#B2B0FF" stroke-width="1.5" stroke-linecap="round" stroke-linejoin="round"/>
</g>
</svg>
