<svg width="32" height="32" viewBox="0 0 32 32" fill="none" xmlns="http://www.w3.org/2000/svg">
<path d="M9.05957 7.90131V5.07778C9.05957 4.29808 9.69162 3.66602 10.4713 3.66602H28.8243C29.604 3.66602 30.236 4.29808 30.236 5.07778V17.7837C30.236 18.5634 29.604 19.1954 28.8243 19.1954H27.4125" stroke="#726EFA" stroke-width="1.5" stroke-linecap="round" stroke-linejoin="round"/>
<path d="M21.7647 13.1367H3.41176C2.63207 13.1367 2 13.7688 2 14.5485V27.2544C2 28.0341 2.63207 28.6661 3.41176 28.6661H21.7647C22.5444 28.6661 23.1765 28.0341 23.1765 27.2544V14.5485C23.1765 13.7688 22.5444 13.1367 21.7647 13.1367Z" fill="#B2B0FF" stroke="#726EFA" stroke-width="1.5" stroke-linecap="round" stroke-linejoin="round"/>
<path d="M2 19.4902H23.1765" stroke="#FDFDFD" stroke-width="1.5" stroke-linecap="round" stroke-linejoin="round"/>
<path d="M23.1768 15.959V24.4296" stroke="#726EFA" stroke-width="1.5" stroke-linecap="round" stroke-linejoin="round"/>
<path d="M2 15.959V24.4296" stroke="#726EFA" stroke-width="1.5" stroke-linecap="round" stroke-linejoin="round"/>
<path d="M6.94141 23.7246H12.5885" stroke="#FDFDFD" stroke-width="1.5" stroke-linecap="round" stroke-linejoin="round"/>
<path d="M16.8232 23.7246H18.235" stroke="#FDFDFD" stroke-width="1.5" stroke-linecap="round" stroke-linejoin="round"/>
</svg>
