<svg width="16" height="16" viewBox="0 0 16 16" fill="none" xmlns="http://www.w3.org/2000/svg">
<g clip-path="url(#clip0_1628_8964)">
<path d="M8.66699 5.00065C8.66699 5.17746 8.59675 5.34703 8.47173 5.47206C8.34671 5.59708 8.17714 5.66732 8.00033 5.66732C7.82351 5.66732 7.65395 5.59708 7.52892 5.47206C7.4039 5.34703 7.33366 5.17746 7.33366 5.00065C7.33366 4.82384 7.4039 4.65427 7.52892 4.52925C7.65395 4.40422 7.82351 4.33398 8.00033 4.33398C8.17714 4.33398 8.34671 4.40422 8.47173 4.52925C8.59675 4.65427 8.66699 4.82384 8.66699 5.00065ZM6.66699 7.50065C6.66699 7.36804 6.71967 7.24087 6.81344 7.1471C6.90721 7.05333 7.03438 7.00065 7.16699 7.00065H8.16699C8.2996 7.00065 8.42678 7.05333 8.52055 7.1471C8.61431 7.24087 8.66699 7.36804 8.66699 7.50065V10.334H9.16699C9.2996 10.334 9.42678 10.3867 9.52055 10.4804C9.61431 10.5742 9.66699 10.7014 9.66699 10.834C9.66699 10.9666 9.61431 11.0938 9.52055 11.1875C9.42678 11.2813 9.2996 11.334 9.16699 11.334H7.16699C7.03438 11.334 6.90721 11.2813 6.81344 11.1875C6.71967 11.0938 6.66699 10.9666 6.66699 10.834C6.66699 10.7014 6.71967 10.5742 6.81344 10.4804C6.90721 10.3867 7.03438 10.334 7.16699 10.334H7.66699V8.00065H7.16699C7.03438 8.00065 6.90721 7.94797 6.81344 7.8542C6.71967 7.76044 6.66699 7.63326 6.66699 7.50065Z" fill="#1E1E1E"/>
<path d="M8.00033 0.666016C12.0503 0.666016 15.3337 3.94935 15.3337 7.99935C15.3337 12.0493 12.0503 15.3327 8.00033 15.3327C3.95033 15.3327 0.666992 12.0493 0.666992 7.99935C0.666992 3.94935 3.95033 0.666016 8.00033 0.666016ZM1.66699 7.99935C1.66699 9.67905 2.33425 11.29 3.52198 12.4777C4.70971 13.6654 6.32062 14.3327 8.00033 14.3327C9.68003 14.3327 11.2909 13.6654 12.4787 12.4777C13.6664 11.29 14.3337 9.67905 14.3337 7.99935C14.3337 6.31964 13.6664 4.70874 12.4787 3.52101C11.2909 2.33328 9.68003 1.66602 8.00033 1.66602C6.32062 1.66602 4.70971 2.33328 3.52198 3.52101C2.33425 4.70874 1.66699 6.31964 1.66699 7.99935Z" fill="#1E1E1E"/>
</g>
<defs>
<clipPath id="clip0_1628_8964">
<rect width="16" height="16" fill="white"/>
</clipPath>
</defs>
</svg>
