<svg width="292" height="32" viewBox="0 0 292 32" fill="none" xmlns="http://www.w3.org/2000/svg">
<rect width="24" height="24" transform="translate(0 4)" fill="#FDFDFD"/>
<circle cx="12" cy="16" r="7" stroke="#8E8E8E" stroke-width="2"/>
<circle cx="12" cy="16" r="2" fill="#FDFDFD"/>
<path d="M34.1023 21.6591V20.1136H34.8011C35.0928 20.1136 35.3333 20.0644 35.5227 19.9659C35.7159 19.8674 35.8731 19.7348 35.9943 19.5682C36.1193 19.3977 36.2235 19.2121 36.3068 19.0114L36.4716 18.5966L32.3807 9.86364H34.2443L37.2955 16.5909L40.0114 9.86364H41.8523L37.8295 19.483C37.6591 19.8693 37.4621 20.2273 37.2386 20.5568C37.0189 20.8864 36.7254 21.1534 36.358 21.358C35.9905 21.5587 35.5038 21.6591 34.8977 21.6591H34.1023ZM42.7358 21.5V12.7727H49.8551V21.5H48.1903V14.2386H44.3892V21.5H42.7358ZM52.1264 24.7727V12.7727H53.7855V14.1875H53.9276C54.026 14.0057 54.1681 13.7955 54.3537 13.5568C54.5393 13.3182 54.7969 13.1098 55.1264 12.9318C55.456 12.75 55.8916 12.6591 56.4332 12.6591C57.1378 12.6591 57.7666 12.8371 58.3196 13.1932C58.8726 13.5492 59.3063 14.0625 59.6207 14.733C59.9389 15.4034 60.098 16.2102 60.098 17.1534C60.098 18.0966 59.9408 18.9053 59.6264 19.5795C59.312 20.25 58.8802 20.767 58.331 21.1307C57.7817 21.4905 57.1548 21.6705 56.4503 21.6705C55.92 21.6705 55.4863 21.5814 55.1491 21.4034C54.8158 21.2254 54.5545 21.017 54.3651 20.7784C54.1757 20.5398 54.0298 20.3277 53.9276 20.142H53.8253V24.7727H52.1264ZM53.7912 17.1364C53.7912 17.75 53.8802 18.2879 54.0582 18.75C54.2363 19.2121 54.4938 19.5739 54.831 19.8352C55.1681 20.0928 55.581 20.2216 56.0696 20.2216C56.5772 20.2216 57.0014 20.0871 57.3423 19.8182C57.6832 19.5455 57.9408 19.1761 58.1151 18.7102C58.2931 18.2443 58.3821 17.7197 58.3821 17.1364C58.3821 16.5606 58.295 16.0436 58.1207 15.5852C57.9503 15.1269 57.6927 14.7652 57.348 14.5C57.0071 14.2348 56.581 14.1023 56.0696 14.1023C55.5772 14.1023 55.1605 14.2292 54.8196 14.483C54.4825 14.7367 54.2268 15.0909 54.0526 15.5455C53.8783 16 53.7912 16.5303 53.7912 17.1364ZM64.5412 21.6932C63.9882 21.6932 63.4882 21.5909 63.0412 21.3864C62.5942 21.178 62.2401 20.8769 61.9787 20.483C61.7211 20.089 61.5923 19.6061 61.5923 19.0341C61.5923 18.5417 61.687 18.1364 61.8764 17.8182C62.0658 17.5 62.3215 17.2481 62.6435 17.0625C62.9654 16.8769 63.3253 16.7367 63.723 16.642C64.1207 16.5473 64.526 16.4754 64.9389 16.4261C65.4616 16.3655 65.8859 16.3163 66.2116 16.2784C66.5374 16.2367 66.7741 16.1705 66.9219 16.0795C67.0696 15.9886 67.1435 15.8409 67.1435 15.6364V15.5966C67.1435 15.1004 67.0033 14.7159 66.723 14.4432C66.4465 14.1705 66.0336 14.0341 65.4844 14.0341C64.9124 14.0341 64.4616 14.161 64.1321 14.4148C63.8063 14.6648 63.581 14.9432 63.456 15.25L61.8594 14.8864C62.0488 14.3561 62.3253 13.928 62.6889 13.6023C63.0563 13.2727 63.4787 13.0341 63.956 12.8864C64.4332 12.7348 64.9351 12.6591 65.4616 12.6591C65.8101 12.6591 66.1795 12.7008 66.5696 12.7841C66.9635 12.8636 67.331 13.0114 67.6719 13.2273C68.0166 13.4432 68.2988 13.7519 68.5185 14.1534C68.7382 14.5511 68.848 15.0682 68.848 15.7045V21.5H67.1889V20.3068H67.1207C67.0109 20.5265 66.8461 20.7424 66.6264 20.9545C66.4067 21.1667 66.1245 21.3428 65.7798 21.483C65.4351 21.6231 65.0223 21.6932 64.5412 21.6932ZM64.9105 20.3295C65.3802 20.3295 65.7817 20.2367 66.1151 20.0511C66.4522 19.8655 66.7079 19.6231 66.8821 19.3239C67.0601 19.0208 67.1491 18.697 67.1491 18.3523V17.2273C67.0885 17.2879 66.9711 17.3447 66.7969 17.3977C66.6264 17.447 66.4313 17.4905 66.2116 17.5284C65.992 17.5625 65.7779 17.5947 65.5696 17.625C65.3613 17.6515 65.187 17.6742 65.0469 17.6932C64.7173 17.7348 64.4162 17.8049 64.1435 17.9034C63.8745 18.0019 63.6586 18.1439 63.4957 18.3295C63.3366 18.5114 63.2571 18.7538 63.2571 19.0568C63.2571 19.4773 63.4124 19.7955 63.723 20.0114C64.0336 20.2235 64.4295 20.3295 64.9105 20.3295ZM71.1108 21.5V12.7727H74.7301C75.715 12.7727 76.4953 12.983 77.071 13.4034C77.6468 13.8201 77.9347 14.3864 77.9347 15.1023C77.9347 15.6136 77.7718 16.0189 77.446 16.3182C77.1203 16.6174 76.6884 16.8182 76.1506 16.9205C76.5407 16.9659 76.8987 17.0833 77.2244 17.2727C77.5502 17.4583 77.8116 17.7083 78.0085 18.0227C78.2093 18.3371 78.3097 18.7121 78.3097 19.1477C78.3097 19.6098 78.1903 20.0189 77.9517 20.375C77.7131 20.7273 77.3665 21.0038 76.9119 21.2045C76.4612 21.4015 75.9176 21.5 75.2812 21.5H71.1108ZM72.7074 20.0795H75.2812C75.7017 20.0795 76.0313 19.9792 76.2699 19.7784C76.5085 19.5777 76.6278 19.3049 76.6278 18.9602C76.6278 18.5549 76.5085 18.2367 76.2699 18.0057C76.0313 17.7708 75.7017 17.6534 75.2812 17.6534H72.7074V20.0795ZM72.7074 16.4091H74.7472C75.0653 16.4091 75.3381 16.3636 75.5653 16.2727C75.7964 16.1818 75.9725 16.053 76.0938 15.8864C76.2188 15.7159 76.2812 15.5152 76.2812 15.2841C76.2812 14.947 76.143 14.6837 75.8665 14.4943C75.59 14.3049 75.2112 14.2102 74.7301 14.2102H72.7074V16.4091ZM79.4858 21.5L79.4801 20.0284H79.7926C80.035 20.0284 80.2377 19.9773 80.4006 19.875C80.5672 19.7689 80.7036 19.5909 80.8097 19.3409C80.9157 19.0909 80.9972 18.7462 81.054 18.3068C81.1108 17.8636 81.1525 17.3068 81.179 16.6364L81.3324 12.7727H87.4233V21.5H85.7585V14.2386H82.9062L82.7699 17.2045C82.7358 17.9242 82.6619 18.553 82.5483 19.0909C82.4384 19.6288 82.2775 20.0777 82.0653 20.4375C81.8532 20.7936 81.5805 21.0606 81.2472 21.2386C80.9138 21.4129 80.5085 21.5 80.0312 21.5H79.4858ZM93.4503 21.6761C92.5904 21.6761 91.8499 21.4924 91.2287 21.125C90.6113 20.7538 90.134 20.233 89.7969 19.5625C89.4635 18.8883 89.2969 18.0985 89.2969 17.1932C89.2969 16.2992 89.4635 15.5114 89.7969 14.8295C90.134 14.1477 90.6037 13.6155 91.206 13.233C91.812 12.8504 92.5204 12.6591 93.331 12.6591C93.8234 12.6591 94.3007 12.7405 94.7628 12.9034C95.2249 13.0663 95.6397 13.322 96.0071 13.6705C96.3745 14.0189 96.6643 14.4716 96.8764 15.0284C97.0885 15.5814 97.1946 16.2538 97.1946 17.0455V17.6477H90.2571V16.375H95.5298C95.5298 15.928 95.4389 15.5322 95.2571 15.1875C95.0753 14.839 94.8196 14.5644 94.4901 14.3636C94.1643 14.1629 93.7817 14.0625 93.3423 14.0625C92.8651 14.0625 92.4484 14.1799 92.0923 14.4148C91.7401 14.6458 91.4673 14.9489 91.2741 15.3239C91.0848 15.6951 90.9901 16.0985 90.9901 16.5341V17.5284C90.9901 18.1117 91.0923 18.608 91.2969 19.017C91.5052 19.4261 91.795 19.7386 92.1662 19.9545C92.5374 20.1667 92.9711 20.2727 93.4673 20.2727C93.7893 20.2727 94.0829 20.2273 94.348 20.1364C94.6132 20.0417 94.8423 19.9015 95.0355 19.7159C95.2287 19.5303 95.3764 19.3011 95.4787 19.0284L97.0866 19.3182C96.9579 19.7917 96.7268 20.2064 96.3935 20.5625C96.0639 20.9148 95.6491 21.1894 95.1491 21.3864C94.6529 21.5795 94.0866 21.6761 93.4503 21.6761ZM104.994 16.4034V17.875H100.267V16.4034H104.994ZM100.744 12.7727V21.5H99.0795V12.7727H100.744ZM106.182 12.7727V21.5H104.523V12.7727H106.182ZM110.119 19.1193L113.966 12.7727H115.795V21.5H114.131V15.1477L110.301 21.5H108.455V12.7727H110.119V19.1193ZM121.841 21.6761C120.981 21.6761 120.241 21.4924 119.619 21.125C119.002 20.7538 118.525 20.233 118.188 19.5625C117.854 18.8883 117.688 18.0985 117.688 17.1932C117.688 16.2992 117.854 15.5114 118.188 14.8295C118.525 14.1477 118.994 13.6155 119.597 13.233C120.203 12.8504 120.911 12.6591 121.722 12.6591C122.214 12.6591 122.691 12.7405 123.153 12.9034C123.616 13.0663 124.03 13.322 124.398 13.6705C124.765 14.0189 125.055 14.4716 125.267 15.0284C125.479 15.5814 125.585 16.2538 125.585 17.0455V17.6477H118.648V16.375H123.92C123.92 15.928 123.83 15.5322 123.648 15.1875C123.466 14.839 123.21 14.5644 122.881 14.3636C122.555 14.1629 122.172 14.0625 121.733 14.0625C121.256 14.0625 120.839 14.1799 120.483 14.4148C120.131 14.6458 119.858 14.9489 119.665 15.3239C119.475 15.6951 119.381 16.0985 119.381 16.5341V17.5284C119.381 18.1117 119.483 18.608 119.688 19.017C119.896 19.4261 120.186 19.7386 120.557 19.9545C120.928 20.1667 121.362 20.2727 121.858 20.2727C122.18 20.2727 122.473 20.2273 122.739 20.1364C123.004 20.0417 123.233 19.9015 123.426 19.7159C123.619 19.5303 123.767 19.3011 123.869 19.0284L125.477 19.3182C125.348 19.7917 125.117 20.2064 124.784 20.5625C124.455 20.9148 124.04 21.1894 123.54 21.3864C123.044 21.5795 122.477 21.6761 121.841 21.6761ZM131.188 19.1932H132.926C132.949 19.5492 133.11 19.8239 133.409 20.017C133.712 20.2102 134.104 20.3068 134.585 20.3068C135.074 20.3068 135.491 20.2027 135.835 19.9943C136.18 19.7822 136.352 19.4545 136.352 19.0114C136.352 18.7462 136.286 18.5152 136.153 18.3182C136.025 18.1174 135.841 17.9621 135.602 17.8523C135.367 17.7424 135.089 17.6875 134.767 17.6875H133.347V16.3523H134.767C135.248 16.3523 135.608 16.2424 135.847 16.0227C136.085 15.803 136.205 15.5284 136.205 15.1989C136.205 14.8428 136.076 14.5568 135.818 14.3409C135.564 14.1212 135.21 14.0114 134.756 14.0114C134.294 14.0114 133.909 14.1155 133.602 14.3239C133.295 14.5284 133.134 14.7936 133.119 15.1193H131.403C131.415 14.6307 131.563 14.2027 131.847 13.8352C132.134 13.464 132.521 13.1761 133.006 12.9716C133.494 12.7633 134.049 12.6591 134.67 12.6591C135.318 12.6591 135.879 12.7633 136.352 12.9716C136.826 13.1799 137.191 13.4678 137.449 13.8352C137.71 14.2027 137.841 14.625 137.841 15.1023C137.841 15.5833 137.697 15.9773 137.409 16.2841C137.125 16.5871 136.754 16.8049 136.295 16.9375V17.0284C136.633 17.0511 136.932 17.1534 137.193 17.3352C137.455 17.517 137.659 17.7576 137.807 18.0568C137.955 18.3561 138.028 18.6951 138.028 19.0739C138.028 19.608 137.881 20.0701 137.585 20.4602C137.294 20.8504 136.888 21.1515 136.369 21.3636C135.854 21.572 135.265 21.6761 134.602 21.6761C133.958 21.6761 133.381 21.5758 132.869 21.375C132.362 21.1705 131.958 20.8826 131.659 20.5114C131.364 20.1402 131.206 19.7008 131.188 19.1932ZM142.322 21.6932C141.769 21.6932 141.269 21.5909 140.822 21.3864C140.375 21.178 140.021 20.8769 139.76 20.483C139.502 20.089 139.374 19.6061 139.374 19.0341C139.374 18.5417 139.468 18.1364 139.658 17.8182C139.847 17.5 140.103 17.2481 140.425 17.0625C140.747 16.8769 141.107 16.7367 141.504 16.642C141.902 16.5473 142.307 16.4754 142.72 16.4261C143.243 16.3655 143.667 16.3163 143.993 16.2784C144.319 16.2367 144.555 16.1705 144.703 16.0795C144.851 15.9886 144.925 15.8409 144.925 15.6364V15.5966C144.925 15.1004 144.785 14.7159 144.504 14.4432C144.228 14.1705 143.815 14.0341 143.266 14.0341C142.694 14.0341 142.243 14.161 141.913 14.4148C141.588 14.6648 141.362 14.9432 141.237 15.25L139.641 14.8864C139.83 14.3561 140.107 13.928 140.47 13.6023C140.838 13.2727 141.26 13.0341 141.737 12.8864C142.214 12.7348 142.716 12.6591 143.243 12.6591C143.591 12.6591 143.961 12.7008 144.351 12.7841C144.745 12.8636 145.112 13.0114 145.453 13.2273C145.798 13.4432 146.08 13.7519 146.3 14.1534C146.519 14.5511 146.629 15.0682 146.629 15.7045V21.5H144.97V20.3068H144.902C144.792 20.5265 144.627 20.7424 144.408 20.9545C144.188 21.1667 143.906 21.3428 143.561 21.483C143.216 21.6231 142.804 21.6932 142.322 21.6932ZM142.692 20.3295C143.161 20.3295 143.563 20.2367 143.896 20.0511C144.233 19.8655 144.489 19.6231 144.663 19.3239C144.841 19.0208 144.93 18.697 144.93 18.3523V17.2273C144.87 17.2879 144.752 17.3447 144.578 17.3977C144.408 17.447 144.213 17.4905 143.993 17.5284C143.773 17.5625 143.559 17.5947 143.351 17.625C143.143 17.6515 142.968 17.6742 142.828 17.6932C142.499 17.7348 142.197 17.8049 141.925 17.9034C141.656 18.0019 141.44 18.1439 141.277 18.3295C141.118 18.5114 141.038 18.7538 141.038 19.0568C141.038 19.4773 141.194 19.7955 141.504 20.0114C141.815 20.2235 142.211 20.3295 142.692 20.3295ZM148.892 21.5V12.7727H156.011V21.5H154.347V14.2386H150.545V21.5H148.892ZM160.822 21.6932C160.269 21.6932 159.769 21.5909 159.322 21.3864C158.875 21.178 158.521 20.8769 158.26 20.483C158.002 20.089 157.874 19.6061 157.874 19.0341C157.874 18.5417 157.968 18.1364 158.158 17.8182C158.347 17.5 158.603 17.2481 158.925 17.0625C159.247 16.8769 159.607 16.7367 160.004 16.642C160.402 16.5473 160.807 16.4754 161.22 16.4261C161.743 16.3655 162.167 16.3163 162.493 16.2784C162.819 16.2367 163.055 16.1705 163.203 16.0795C163.351 15.9886 163.425 15.8409 163.425 15.6364V15.5966C163.425 15.1004 163.285 14.7159 163.004 14.4432C162.728 14.1705 162.315 14.0341 161.766 14.0341C161.194 14.0341 160.743 14.161 160.413 14.4148C160.088 14.6648 159.862 14.9432 159.737 15.25L158.141 14.8864C158.33 14.3561 158.607 13.928 158.97 13.6023C159.338 13.2727 159.76 13.0341 160.237 12.8864C160.714 12.7348 161.216 12.6591 161.743 12.6591C162.091 12.6591 162.461 12.7008 162.851 12.7841C163.245 12.8636 163.612 13.0114 163.953 13.2273C164.298 13.4432 164.58 13.7519 164.8 14.1534C165.019 14.5511 165.129 15.0682 165.129 15.7045V21.5H163.47V20.3068H163.402C163.292 20.5265 163.127 20.7424 162.908 20.9545C162.688 21.1667 162.406 21.3428 162.061 21.483C161.716 21.6231 161.304 21.6932 160.822 21.6932ZM161.192 20.3295C161.661 20.3295 162.063 20.2367 162.396 20.0511C162.733 19.8655 162.989 19.6231 163.163 19.3239C163.341 19.0208 163.43 18.697 163.43 18.3523V17.2273C163.37 17.2879 163.252 17.3447 163.078 17.3977C162.908 17.447 162.713 17.4905 162.493 17.5284C162.273 17.5625 162.059 17.5947 161.851 17.625C161.643 17.6515 161.468 17.6742 161.328 17.6932C160.999 17.7348 160.697 17.8049 160.425 17.9034C160.156 18.0019 159.94 18.1439 159.777 18.3295C159.618 18.5114 159.538 18.7538 159.538 19.0568C159.538 19.4773 159.694 19.7955 160.004 20.0114C160.315 20.2235 160.711 20.3295 161.192 20.3295ZM171.068 21.6761C170.223 21.6761 169.496 21.4848 168.886 21.1023C168.28 20.7159 167.814 20.1837 167.489 19.5057C167.163 18.8277 167 18.0511 167 17.1761C167 16.2898 167.167 15.5076 167.5 14.8295C167.833 14.1477 168.303 13.6155 168.909 13.233C169.515 12.8504 170.229 12.6591 171.051 12.6591C171.714 12.6591 172.305 12.7822 172.824 13.0284C173.343 13.2708 173.761 13.6117 174.08 14.0511C174.402 14.4905 174.593 15.0038 174.653 15.5909H173C172.909 15.1818 172.701 14.8295 172.375 14.5341C172.053 14.2386 171.621 14.0909 171.08 14.0909C170.606 14.0909 170.191 14.2159 169.835 14.4659C169.483 14.7121 169.208 15.0644 169.011 15.5227C168.814 15.9773 168.716 16.5152 168.716 17.1364C168.716 17.7727 168.813 18.322 169.006 18.7841C169.199 19.2462 169.472 19.6042 169.824 19.858C170.18 20.1117 170.598 20.2386 171.08 20.2386C171.402 20.2386 171.693 20.1799 171.955 20.0625C172.22 19.9413 172.441 19.7689 172.619 19.5455C172.801 19.322 172.928 19.053 173 18.7386H174.653C174.593 19.303 174.409 19.8068 174.102 20.25C173.795 20.6932 173.384 21.0417 172.869 21.2955C172.358 21.5492 171.758 21.6761 171.068 21.6761ZM179.01 21.6932C178.457 21.6932 177.957 21.5909 177.51 21.3864C177.063 21.178 176.709 20.8769 176.447 20.483C176.19 20.089 176.061 19.6061 176.061 19.0341C176.061 18.5417 176.156 18.1364 176.345 17.8182C176.535 17.5 176.79 17.2481 177.112 17.0625C177.434 16.8769 177.794 16.7367 178.192 16.642C178.589 16.5473 178.995 16.4754 179.408 16.4261C179.93 16.3655 180.355 16.3163 180.68 16.2784C181.006 16.2367 181.243 16.1705 181.391 16.0795C181.538 15.9886 181.612 15.8409 181.612 15.6364V15.5966C181.612 15.1004 181.472 14.7159 181.192 14.4432C180.915 14.1705 180.502 14.0341 179.953 14.0341C179.381 14.0341 178.93 14.161 178.601 14.4148C178.275 14.6648 178.05 14.9432 177.925 15.25L176.328 14.8864C176.518 14.3561 176.794 13.928 177.158 13.6023C177.525 13.2727 177.947 13.0341 178.425 12.8864C178.902 12.7348 179.404 12.6591 179.93 12.6591C180.279 12.6591 180.648 12.7008 181.038 12.7841C181.432 12.8636 181.8 13.0114 182.141 13.2273C182.485 13.4432 182.768 13.7519 182.987 14.1534C183.207 14.5511 183.317 15.0682 183.317 15.7045V21.5H181.658V20.3068H181.589C181.48 20.5265 181.315 20.7424 181.095 20.9545C180.875 21.1667 180.593 21.3428 180.249 21.483C179.904 21.6231 179.491 21.6932 179.01 21.6932ZM179.379 20.3295C179.849 20.3295 180.25 20.2367 180.584 20.0511C180.921 19.8655 181.177 19.6231 181.351 19.3239C181.529 19.0208 181.618 18.697 181.618 18.3523V17.2273C181.557 17.2879 181.44 17.3447 181.266 17.3977C181.095 17.447 180.9 17.4905 180.68 17.5284C180.461 17.5625 180.247 17.5947 180.038 17.625C179.83 17.6515 179.656 17.6742 179.516 17.6932C179.186 17.7348 178.885 17.8049 178.612 17.9034C178.343 18.0019 178.127 18.1439 177.964 18.3295C177.805 18.5114 177.726 18.7538 177.726 19.0568C177.726 19.4773 177.881 19.7955 178.192 20.0114C178.502 20.2235 178.898 20.3295 179.379 20.3295ZM190.477 19.3977L193.295 12.7727H194.761L191.108 21.5H189.847L186.267 12.7727H187.716L190.477 19.3977ZM187.244 12.7727V21.5H185.58V12.7727H187.244ZM193.756 21.5V12.7727H195.409V21.5H193.756ZM199.338 19.1193L203.185 12.7727H205.014V21.5H203.349V15.1477L199.52 21.5H197.673V12.7727H199.338V19.1193Z" fill="#1E1E1E"/>
</svg>
